<?xml version="1.0" encoding="UTF-8" standalone="no"?><svg xmlns="http://www.w3.org/2000/svg" xmlns:xlink="http://www.w3.org/1999/xlink" contentScriptType="application/ecmascript" contentStyleType="text/css" height="605px" preserveAspectRatio="none" style="width:1427px;height:605px;" version="1.1" viewBox="0 0 1427 605" width="1427px" zoomAndPan="magnify"><defs><filter height="300%" id="f13h0x3shlfdx0" width="300%" x="-1" y="-1"><feGaussianBlur result="blurOut" stdDeviation="2.0"/><feColorMatrix in="blurOut" result="blurOut2" type="matrix" values="0 0 0 0 0 0 0 0 0 0 0 0 0 0 0 0 0 0 .4 0"/><feOffset dx="4.0" dy="4.0" in="blurOut2" result="blurOut3"/><feBlend in="SourceGraphic" in2="blurOut3" mode="normal"/></filter></defs><g><!--MD5=[10ea673caf457862023e152271927b45]
cluster controller--><polygon fill="#DDDDDD" filter="url(#f13h0x3shlfdx0)" points="185.18,50,260.18,50,267.18,73.6094,283.18,73.6094,283.18,258,185.18,258,185.18,50" style="stroke:#000000;stroke-width:1.5;"/><line style="stroke:#000000;stroke-width:1.5;" x1="185.18" x2="267.18" y1="73.6094" y2="73.6094"/><text fill="#000000" font-family="sans-serif" font-size="14" font-weight="bold" lengthAdjust="spacing" textLength="69" x="189.18" y="66.5332">controller</text><!--MD5=[86cbce8df1eb9d604fbbb2fa357940f8]
cluster view--><polygon fill="#FFFFFF" filter="url(#f13h0x3shlfdx0)" points="20.18,282,59.18,282,66.18,305.6094,293.18,305.6094,293.18,598,20.18,598,20.18,282" style="stroke:#000000;stroke-width:1.5;"/><line style="stroke:#000000;stroke-width:1.5;" x1="20.18" x2="66.18" y1="305.6094" y2="305.6094"/><text fill="#000000" font-family="sans-serif" font-size="14" font-weight="bold" lengthAdjust="spacing" textLength="33" x="24.18" y="298.5332">view</text><!--MD5=[7e3998157ce2bbf2ed9cc5c941d53de1]
cluster pkg1--><polygon fill="#EECCEE" filter="url(#f13h0x3shlfdx0)" points="317.18,6,366.18,6,373.18,29.6094,1410.18,29.6094,1410.18,490,317.18,490,317.18,6" style="stroke:#000000;stroke-width:1.5;"/><line style="stroke:#000000;stroke-width:1.5;" x1="317.18" x2="373.18" y1="29.6094" y2="29.6094"/><text fill="#000000" font-family="sans-serif" font-size="14" font-weight="bold" lengthAdjust="spacing" textLength="43" x="321.18" y="22.5332">model</text><!--MD5=[6b6c4604c4126a9fe114f88d0b16c0d2]
cluster pkg2--><polygon fill="#EECCBB" filter="url(#f13h0x3shlfdx0)" points="540.18,50,582.18,50,589.18,73.6094,1386.18,73.6094,1386.18,382,540.18,382,540.18,50" style="stroke:#000000;stroke-width:1.5;"/><line style="stroke:#000000;stroke-width:1.5;" x1="540.18" x2="589.18" y1="73.6094" y2="73.6094"/><text fill="#000000" font-family="sans-serif" font-size="14" font-weight="bold" lengthAdjust="spacing" textLength="36" x="544.18" y="66.5332">rules</text><!--MD5=[d31afda0cc48baf0421fddc3e8b169da]
class p1--><rect codeLine="3" fill="#FEFECE" filter="url(#f13h0x3shlfdx0)" height="48" id="p1" style="stroke:#A80036;stroke-width:1.5;" width="66" x="201.18" y="194"/><ellipse cx="216.18" cy="210" fill="#ADD1B2" rx="11" ry="11" style="stroke:#A80036;stroke-width:1.0;"/><path d="M218.9456,205.875 Q219.1019,205.6563 219.2894,205.5469 Q219.4769,205.4375 219.6956,205.4375 Q220.0706,205.4375 220.305,205.7031 Q220.5394,205.9531 220.5394,206.5625 L220.5394,208.0156 Q220.5394,208.625 220.305,208.8906 Q220.0706,209.1563 219.6956,209.1563 Q219.3519,209.1563 219.1488,208.9531 Q218.9456,208.7656 218.8363,208.25 Q218.7894,207.8906 218.6019,207.7031 Q218.2738,207.3281 217.6644,207.1094 Q217.055,206.8906 216.43,206.8906 Q215.6644,206.8906 215.0238,207.2188 Q214.3988,207.5469 213.8988,208.2969 Q213.4144,209.0469 213.4144,210.0781 L213.4144,211.1719 Q213.4144,212.4063 214.305,213.2344 Q215.1956,214.0469 216.7894,214.0469 Q217.7269,214.0469 218.3831,213.7969 Q218.7738,213.6406 219.1956,213.2031 Q219.4613,212.9375 219.6019,212.8594 Q219.7581,212.7813 219.9613,212.7813 Q220.2894,212.7813 220.5394,213.0469 Q220.805,213.2969 220.805,213.6406 Q220.805,213.9844 220.4613,214.3906 Q219.9613,214.9688 219.1644,215.2969 Q218.0863,215.75 216.7894,215.75 Q215.2738,215.75 214.0706,215.125 Q213.0863,214.625 212.3988,213.5625 Q211.7113,212.4844 211.7113,211.2031 L211.7113,210.0469 Q211.7113,208.7188 212.3206,207.5781 Q212.9456,206.4219 214.0394,205.8125 Q215.1331,205.1875 216.3675,205.1875 Q217.1019,205.1875 217.7425,205.3594 Q218.3988,205.5156 218.9456,205.875 Z " fill="#000000"/><text fill="#000000" font-family="sans-serif" font-size="12" lengthAdjust="spacing" textLength="34" x="230.18" y="214.9102">Player</text><line style="stroke:#A80036;stroke-width:1.5;" x1="202.18" x2="266.18" y1="226" y2="226"/><line style="stroke:#A80036;stroke-width:1.5;" x1="202.18" x2="266.18" y1="234" y2="234"/><!--MD5=[335f4d9be48430461c68bf6d6fdba145]
class App--><rect fill="#FEFECE" filter="url(#f13h0x3shlfdx0)" height="48" id="App" style="stroke:#A80036;stroke-width:1.5;" width="53" x="204.68" y="86"/><ellipse cx="219.68" cy="102" fill="#ADD1B2" rx="11" ry="11" style="stroke:#A80036;stroke-width:1.0;"/><path d="M222.4456,97.875 Q222.6019,97.6563 222.7894,97.5469 Q222.9769,97.4375 223.1956,97.4375 Q223.5706,97.4375 223.805,97.7031 Q224.0394,97.9531 224.0394,98.5625 L224.0394,100.0156 Q224.0394,100.625 223.805,100.8906 Q223.5706,101.1563 223.1956,101.1563 Q222.8519,101.1563 222.6488,100.9531 Q222.4456,100.7656 222.3363,100.25 Q222.2894,99.8906 222.1019,99.7031 Q221.7738,99.3281 221.1644,99.1094 Q220.555,98.8906 219.93,98.8906 Q219.1644,98.8906 218.5238,99.2188 Q217.8988,99.5469 217.3988,100.2969 Q216.9144,101.0469 216.9144,102.0781 L216.9144,103.1719 Q216.9144,104.4063 217.805,105.2344 Q218.6956,106.0469 220.2894,106.0469 Q221.2269,106.0469 221.8831,105.7969 Q222.2738,105.6406 222.6956,105.2031 Q222.9613,104.9375 223.1019,104.8594 Q223.2581,104.7813 223.4613,104.7813 Q223.7894,104.7813 224.0394,105.0469 Q224.305,105.2969 224.305,105.6406 Q224.305,105.9844 223.9613,106.3906 Q223.4613,106.9688 222.6644,107.2969 Q221.5863,107.75 220.2894,107.75 Q218.7738,107.75 217.5706,107.125 Q216.5863,106.625 215.8988,105.5625 Q215.2113,104.4844 215.2113,103.2031 L215.2113,102.0469 Q215.2113,100.7188 215.8206,99.5781 Q216.4456,98.4219 217.5394,97.8125 Q218.6331,97.1875 219.8675,97.1875 Q220.6019,97.1875 221.2425,97.3594 Q221.8988,97.5156 222.4456,97.875 Z " fill="#000000"/><text fill="#000000" font-family="sans-serif" font-size="12" lengthAdjust="spacing" textLength="21" x="233.68" y="106.9102">App</text><line style="stroke:#A80036;stroke-width:1.5;" x1="205.68" x2="256.68" y1="118" y2="118"/><line style="stroke:#A80036;stroke-width:1.5;" x1="205.68" x2="256.68" y1="126" y2="126"/><!--MD5=[c045e12321b83266d36d22b9096c24ea]
class View--><rect codeLine="8" fill="#FEFECE" filter="url(#f13h0x3shlfdx0)" height="48" id="View" style="stroke:#A80036;stroke-width:1.5;" width="58" x="202.18" y="318"/><ellipse cx="217.18" cy="334" fill="#B4A7E5" rx="11" ry="11" style="stroke:#A80036;stroke-width:1.0;"/><path d="M218.1331,330.6406 L218.1331,337.2969 L219.8519,337.2969 Q220.4613,337.2969 220.7269,337.5313 Q220.9925,337.7656 220.9925,338.1563 Q220.9925,338.5313 220.7269,338.7656 Q220.4613,339 219.8519,339 L214.7113,339 Q214.1019,339 213.8363,338.7656 Q213.5706,338.5313 213.5706,338.1406 Q213.5706,337.7656 213.8363,337.5313 Q214.1019,337.2969 214.7113,337.2969 L216.43,337.2969 L216.43,330.6406 L214.7113,330.6406 Q214.1019,330.6406 213.8363,330.4063 Q213.5706,330.1719 213.5706,329.7813 Q213.5706,329.4063 213.8363,329.1719 Q214.1019,328.9375 214.7113,328.9375 L219.8519,328.9375 Q220.4613,328.9375 220.7269,329.1719 Q220.9925,329.4063 220.9925,329.7813 Q220.9925,330.1719 220.7269,330.4063 Q220.4613,330.6406 219.8519,330.6406 L218.1331,330.6406 Z " fill="#000000"/><text fill="#000000" font-family="sans-serif" font-size="12" font-style="italic" lengthAdjust="spacing" textLength="26" x="231.18" y="338.9102">View</text><line style="stroke:#A80036;stroke-width:1.5;" x1="203.18" x2="259.18" y1="350" y2="350"/><line style="stroke:#A80036;stroke-width:1.5;" x1="203.18" x2="259.18" y1="358" y2="358"/><!--MD5=[a4867f0f4834f6ea89f520c5b0c00377]
class Options--><rect codeLine="9" fill="#FEFECE" filter="url(#f13h0x3shlfdx0)" height="48" id="Options" style="stroke:#A80036;stroke-width:1.5;" width="75" x="48.68" y="534"/><ellipse cx="63.68" cy="550" fill="#EB937F" rx="11" ry="11" style="stroke:#A80036;stroke-width:1.0;"/><path d="M62.5394,550.7969 L62.5394,553.2969 L66.8675,553.2969 L66.8675,552.375 Q66.8675,551.7656 67.1019,551.5 Q67.3519,551.2344 67.7269,551.2344 Q68.1019,551.2344 68.3363,551.5 Q68.5706,551.7656 68.5706,552.375 L68.5706,555 L60.5706,555 Q59.9456,555 59.68,554.7656 Q59.43,554.5313 59.43,554.1406 Q59.43,553.7656 59.6956,553.5313 Q59.9613,553.2969 60.5706,553.2969 L60.8363,553.2969 L60.8363,546.6406 L60.5706,546.6406 Q59.9456,546.6406 59.68,546.4063 Q59.43,546.1719 59.43,545.7813 Q59.43,545.4063 59.68,545.1719 Q59.9456,544.9375 60.5706,544.9375 L68.1956,544.9375 L68.1956,547.5313 Q68.1956,548.1406 67.9613,548.4063 Q67.7425,548.6563 67.3519,548.6563 Q66.9769,548.6563 66.7425,548.4063 Q66.5081,548.1406 66.5081,547.5313 L66.5081,546.6406 L62.5394,546.6406 L62.5394,549.0938 L64.0238,549.0938 Q64.0238,548.4375 64.1488,548.25 Q64.4144,547.8438 64.8831,547.8438 Q65.2581,547.8438 65.4925,548.1094 Q65.7269,548.3594 65.7269,548.9688 L65.7269,550.9375 Q65.7269,551.4844 65.6019,551.6719 Q65.3363,552.0625 64.8831,552.0625 Q64.4144,552.0625 64.1488,551.6563 Q64.0238,551.4688 64.0238,550.7969 L62.5394,550.7969 Z " fill="#000000"/><text fill="#000000" font-family="sans-serif" font-size="12" lengthAdjust="spacing" textLength="43" x="77.68" y="554.9102">Options</text><line style="stroke:#A80036;stroke-width:1.5;" x1="49.68" x2="122.68" y1="566" y2="566"/><line style="stroke:#A80036;stroke-width:1.5;" x1="49.68" x2="122.68" y1="574" y2="574"/><!--MD5=[f0f7836e1628f61bfb3c4e89baf99f21]
class EnglishView--><rect fill="#FEFECE" filter="url(#f13h0x3shlfdx0)" height="48" id="EnglishView" style="stroke:#A80036;stroke-width:1.5;" width="100" x="36.18" y="426"/><ellipse cx="51.18" cy="442" fill="#ADD1B2" rx="11" ry="11" style="stroke:#A80036;stroke-width:1.0;"/><path d="M53.9456,437.875 Q54.1019,437.6563 54.2894,437.5469 Q54.4769,437.4375 54.6956,437.4375 Q55.0706,437.4375 55.305,437.7031 Q55.5394,437.9531 55.5394,438.5625 L55.5394,440.0156 Q55.5394,440.625 55.305,440.8906 Q55.0706,441.1563 54.6956,441.1563 Q54.3519,441.1563 54.1488,440.9531 Q53.9456,440.7656 53.8363,440.25 Q53.7894,439.8906 53.6019,439.7031 Q53.2738,439.3281 52.6644,439.1094 Q52.055,438.8906 51.43,438.8906 Q50.6644,438.8906 50.0238,439.2188 Q49.3988,439.5469 48.8988,440.2969 Q48.4144,441.0469 48.4144,442.0781 L48.4144,443.1719 Q48.4144,444.4063 49.305,445.2344 Q50.1956,446.0469 51.7894,446.0469 Q52.7269,446.0469 53.3831,445.7969 Q53.7738,445.6406 54.1956,445.2031 Q54.4613,444.9375 54.6019,444.8594 Q54.7581,444.7813 54.9613,444.7813 Q55.2894,444.7813 55.5394,445.0469 Q55.805,445.2969 55.805,445.6406 Q55.805,445.9844 55.4613,446.3906 Q54.9613,446.9688 54.1644,447.2969 Q53.0863,447.75 51.7894,447.75 Q50.2738,447.75 49.0706,447.125 Q48.0863,446.625 47.3988,445.5625 Q46.7113,444.4844 46.7113,443.2031 L46.7113,442.0469 Q46.7113,440.7188 47.3206,439.5781 Q47.9456,438.4219 49.0394,437.8125 Q50.1331,437.1875 51.3675,437.1875 Q52.1019,437.1875 52.7425,437.3594 Q53.3988,437.5156 53.9456,437.875 Z " fill="#000000"/><text fill="#000000" font-family="sans-serif" font-size="12" lengthAdjust="spacing" textLength="68" x="65.18" y="446.9102">EnglishView</text><line style="stroke:#A80036;stroke-width:1.5;" x1="37.18" x2="135.18" y1="458" y2="458"/><line style="stroke:#A80036;stroke-width:1.5;" x1="37.18" x2="135.18" y1="466" y2="466"/><!--MD5=[69e76325f73188a179b3cc2ab49b19f4]
class SwedishView--><rect fill="#FEFECE" filter="url(#f13h0x3shlfdx0)" height="48" id="SwedishView" style="stroke:#A80036;stroke-width:1.5;" width="106" x="171.18" y="426"/><ellipse cx="186.18" cy="442" fill="#ADD1B2" rx="11" ry="11" style="stroke:#A80036;stroke-width:1.0;"/><path d="M188.9456,437.875 Q189.1019,437.6563 189.2894,437.5469 Q189.4769,437.4375 189.6956,437.4375 Q190.0706,437.4375 190.305,437.7031 Q190.5394,437.9531 190.5394,438.5625 L190.5394,440.0156 Q190.5394,440.625 190.305,440.8906 Q190.0706,441.1563 189.6956,441.1563 Q189.3519,441.1563 189.1488,440.9531 Q188.9456,440.7656 188.8363,440.25 Q188.7894,439.8906 188.6019,439.7031 Q188.2738,439.3281 187.6644,439.1094 Q187.055,438.8906 186.43,438.8906 Q185.6644,438.8906 185.0238,439.2188 Q184.3988,439.5469 183.8988,440.2969 Q183.4144,441.0469 183.4144,442.0781 L183.4144,443.1719 Q183.4144,444.4063 184.305,445.2344 Q185.1956,446.0469 186.7894,446.0469 Q187.7269,446.0469 188.3831,445.7969 Q188.7738,445.6406 189.1956,445.2031 Q189.4613,444.9375 189.6019,444.8594 Q189.7581,444.7813 189.9613,444.7813 Q190.2894,444.7813 190.5394,445.0469 Q190.805,445.2969 190.805,445.6406 Q190.805,445.9844 190.4613,446.3906 Q189.9613,446.9688 189.1644,447.2969 Q188.0863,447.75 186.7894,447.75 Q185.2738,447.75 184.0706,447.125 Q183.0863,446.625 182.3988,445.5625 Q181.7113,444.4844 181.7113,443.2031 L181.7113,442.0469 Q181.7113,440.7188 182.3206,439.5781 Q182.9456,438.4219 184.0394,437.8125 Q185.1331,437.1875 186.3675,437.1875 Q187.1019,437.1875 187.7425,437.3594 Q188.3988,437.5156 188.9456,437.875 Z " fill="#000000"/><text fill="#000000" font-family="sans-serif" font-size="12" lengthAdjust="spacing" textLength="74" x="200.18" y="446.9102">SwedishView</text><line style="stroke:#A80036;stroke-width:1.5;" x1="172.18" x2="276.18" y1="458" y2="458"/><line style="stroke:#A80036;stroke-width:1.5;" x1="172.18" x2="276.18" y1="466" y2="466"/><!--MD5=[628d87af146a3c6c03649b82b9cf03ea]
class p2--><rect codeLine="18" fill="#FEFECE" filter="url(#f13h0x3shlfdx0)" height="48" id="p2" style="stroke:#A80036;stroke-width:1.5;" width="66" x="359.18" y="318"/><ellipse cx="374.18" cy="334" fill="#ADD1B2" rx="11" ry="11" style="stroke:#A80036;stroke-width:1.0;"/><path d="M376.9456,329.875 Q377.1019,329.6563 377.2894,329.5469 Q377.4769,329.4375 377.6956,329.4375 Q378.0706,329.4375 378.305,329.7031 Q378.5394,329.9531 378.5394,330.5625 L378.5394,332.0156 Q378.5394,332.625 378.305,332.8906 Q378.0706,333.1563 377.6956,333.1563 Q377.3519,333.1563 377.1488,332.9531 Q376.9456,332.7656 376.8363,332.25 Q376.7894,331.8906 376.6019,331.7031 Q376.2738,331.3281 375.6644,331.1094 Q375.055,330.8906 374.43,330.8906 Q373.6644,330.8906 373.0238,331.2188 Q372.3988,331.5469 371.8988,332.2969 Q371.4144,333.0469 371.4144,334.0781 L371.4144,335.1719 Q371.4144,336.4063 372.305,337.2344 Q373.1956,338.0469 374.7894,338.0469 Q375.7269,338.0469 376.3831,337.7969 Q376.7738,337.6406 377.1956,337.2031 Q377.4613,336.9375 377.6019,336.8594 Q377.7581,336.7813 377.9613,336.7813 Q378.2894,336.7813 378.5394,337.0469 Q378.805,337.2969 378.805,337.6406 Q378.805,337.9844 378.4613,338.3906 Q377.9613,338.9688 377.1644,339.2969 Q376.0863,339.75 374.7894,339.75 Q373.2738,339.75 372.0706,339.125 Q371.0863,338.625 370.3988,337.5625 Q369.7113,336.4844 369.7113,335.2031 L369.7113,334.0469 Q369.7113,332.7188 370.3206,331.5781 Q370.9456,330.4219 372.0394,329.8125 Q373.1331,329.1875 374.3675,329.1875 Q375.1019,329.1875 375.7425,329.3594 Q376.3988,329.5156 376.9456,329.875 Z " fill="#000000"/><text fill="#000000" font-family="sans-serif" font-size="12" lengthAdjust="spacing" textLength="34" x="388.18" y="338.9102">Player</text><line style="stroke:#A80036;stroke-width:1.5;" x1="360.18" x2="424.18" y1="350" y2="350"/><line style="stroke:#A80036;stroke-width:1.5;" x1="360.18" x2="424.18" y1="358" y2="358"/><!--MD5=[489d8ee0a19148a265eb284aebff018b]
class Dealer--><rect fill="#FEFECE" filter="url(#f13h0x3shlfdx0)" height="48" id="Dealer" style="stroke:#A80036;stroke-width:1.5;" width="69" x="452.68" y="194"/><ellipse cx="467.68" cy="210" fill="#ADD1B2" rx="11" ry="11" style="stroke:#A80036;stroke-width:1.0;"/><path d="M470.4456,205.875 Q470.6019,205.6563 470.7894,205.5469 Q470.9769,205.4375 471.1956,205.4375 Q471.5706,205.4375 471.805,205.7031 Q472.0394,205.9531 472.0394,206.5625 L472.0394,208.0156 Q472.0394,208.625 471.805,208.8906 Q471.5706,209.1563 471.1956,209.1563 Q470.8519,209.1563 470.6488,208.9531 Q470.4456,208.7656 470.3363,208.25 Q470.2894,207.8906 470.1019,207.7031 Q469.7738,207.3281 469.1644,207.1094 Q468.555,206.8906 467.93,206.8906 Q467.1644,206.8906 466.5238,207.2188 Q465.8988,207.5469 465.3988,208.2969 Q464.9144,209.0469 464.9144,210.0781 L464.9144,211.1719 Q464.9144,212.4063 465.805,213.2344 Q466.6956,214.0469 468.2894,214.0469 Q469.2269,214.0469 469.8831,213.7969 Q470.2738,213.6406 470.6956,213.2031 Q470.9613,212.9375 471.1019,212.8594 Q471.2581,212.7813 471.4613,212.7813 Q471.7894,212.7813 472.0394,213.0469 Q472.305,213.2969 472.305,213.6406 Q472.305,213.9844 471.9613,214.3906 Q471.4613,214.9688 470.6644,215.2969 Q469.5863,215.75 468.2894,215.75 Q466.7738,215.75 465.5706,215.125 Q464.5863,214.625 463.8988,213.5625 Q463.2113,212.4844 463.2113,211.2031 L463.2113,210.0469 Q463.2113,208.7188 463.8206,207.5781 Q464.4456,206.4219 465.5394,205.8125 Q466.6331,205.1875 467.8675,205.1875 Q468.6019,205.1875 469.2425,205.3594 Q469.8988,205.5156 470.4456,205.875 Z " fill="#000000"/><text fill="#000000" font-family="sans-serif" font-size="12" lengthAdjust="spacing" textLength="37" x="481.68" y="214.9102">Dealer</text><line style="stroke:#A80036;stroke-width:1.5;" x1="453.68" x2="520.68" y1="226" y2="226"/><line style="stroke:#A80036;stroke-width:1.5;" x1="453.68" x2="520.68" y1="234" y2="234"/><!--MD5=[30299a58ba6b78debaaed5ddbb42f29a]
class Deck--><rect fill="#FEFECE" filter="url(#f13h0x3shlfdx0)" height="48" id="Deck" style="stroke:#A80036;stroke-width:1.5;" width="60" x="460.18" y="318"/><ellipse cx="475.18" cy="334" fill="#ADD1B2" rx="11" ry="11" style="stroke:#A80036;stroke-width:1.0;"/><path d="M477.9456,329.875 Q478.1019,329.6563 478.2894,329.5469 Q478.4769,329.4375 478.6956,329.4375 Q479.0706,329.4375 479.305,329.7031 Q479.5394,329.9531 479.5394,330.5625 L479.5394,332.0156 Q479.5394,332.625 479.305,332.8906 Q479.0706,333.1563 478.6956,333.1563 Q478.3519,333.1563 478.1488,332.9531 Q477.9456,332.7656 477.8363,332.25 Q477.7894,331.8906 477.6019,331.7031 Q477.2738,331.3281 476.6644,331.1094 Q476.055,330.8906 475.43,330.8906 Q474.6644,330.8906 474.0238,331.2188 Q473.3988,331.5469 472.8988,332.2969 Q472.4144,333.0469 472.4144,334.0781 L472.4144,335.1719 Q472.4144,336.4063 473.305,337.2344 Q474.1956,338.0469 475.7894,338.0469 Q476.7269,338.0469 477.3831,337.7969 Q477.7738,337.6406 478.1956,337.2031 Q478.4613,336.9375 478.6019,336.8594 Q478.7581,336.7813 478.9613,336.7813 Q479.2894,336.7813 479.5394,337.0469 Q479.805,337.2969 479.805,337.6406 Q479.805,337.9844 479.4613,338.3906 Q478.9613,338.9688 478.1644,339.2969 Q477.0863,339.75 475.7894,339.75 Q474.2738,339.75 473.0706,339.125 Q472.0863,338.625 471.3988,337.5625 Q470.7113,336.4844 470.7113,335.2031 L470.7113,334.0469 Q470.7113,332.7188 471.3206,331.5781 Q471.9456,330.4219 473.0394,329.8125 Q474.1331,329.1875 475.3675,329.1875 Q476.1019,329.1875 476.7425,329.3594 Q477.3988,329.5156 477.9456,329.875 Z " fill="#000000"/><text fill="#000000" font-family="sans-serif" font-size="12" lengthAdjust="spacing" textLength="28" x="489.18" y="338.9102">Deck</text><line style="stroke:#A80036;stroke-width:1.5;" x1="461.18" x2="519.18" y1="350" y2="350"/><line style="stroke:#A80036;stroke-width:1.5;" x1="461.18" x2="519.18" y1="358" y2="358"/><!--MD5=[5e305716458bbdabbd2d7f572ed2bae2]
class Card--><rect fill="#FEFECE" filter="url(#f13h0x3shlfdx0)" height="48" id="Card" style="stroke:#A80036;stroke-width:1.5;" width="59" x="396.68" y="426"/><ellipse cx="411.68" cy="442" fill="#ADD1B2" rx="11" ry="11" style="stroke:#A80036;stroke-width:1.0;"/><path d="M414.4456,437.875 Q414.6019,437.6563 414.7894,437.5469 Q414.9769,437.4375 415.1956,437.4375 Q415.5706,437.4375 415.805,437.7031 Q416.0394,437.9531 416.0394,438.5625 L416.0394,440.0156 Q416.0394,440.625 415.805,440.8906 Q415.5706,441.1563 415.1956,441.1563 Q414.8519,441.1563 414.6488,440.9531 Q414.4456,440.7656 414.3363,440.25 Q414.2894,439.8906 414.1019,439.7031 Q413.7738,439.3281 413.1644,439.1094 Q412.555,438.8906 411.93,438.8906 Q411.1644,438.8906 410.5238,439.2188 Q409.8988,439.5469 409.3988,440.2969 Q408.9144,441.0469 408.9144,442.0781 L408.9144,443.1719 Q408.9144,444.4063 409.805,445.2344 Q410.6956,446.0469 412.2894,446.0469 Q413.2269,446.0469 413.8831,445.7969 Q414.2738,445.6406 414.6956,445.2031 Q414.9613,444.9375 415.1019,444.8594 Q415.2581,444.7813 415.4613,444.7813 Q415.7894,444.7813 416.0394,445.0469 Q416.305,445.2969 416.305,445.6406 Q416.305,445.9844 415.9613,446.3906 Q415.4613,446.9688 414.6644,447.2969 Q413.5863,447.75 412.2894,447.75 Q410.7738,447.75 409.5706,447.125 Q408.5863,446.625 407.8988,445.5625 Q407.2113,444.4844 407.2113,443.2031 L407.2113,442.0469 Q407.2113,440.7188 407.8206,439.5781 Q408.4456,438.4219 409.5394,437.8125 Q410.6331,437.1875 411.8675,437.1875 Q412.6019,437.1875 413.2425,437.3594 Q413.8988,437.5156 414.4456,437.875 Z " fill="#000000"/><text fill="#000000" font-family="sans-serif" font-size="12" lengthAdjust="spacing" textLength="27" x="425.68" y="446.9102">Card</text><line style="stroke:#A80036;stroke-width:1.5;" x1="397.68" x2="454.68" y1="458" y2="458"/><line style="stroke:#A80036;stroke-width:1.5;" x1="397.68" x2="454.68" y1="466" y2="466"/><!--MD5=[b6dcce5e5ef3c84b0b048d11301373dd]
class Game--><rect fill="#FEFECE" filter="url(#f13h0x3shlfdx0)" height="48" id="Game" style="stroke:#A80036;stroke-width:1.5;" width="66" x="458.18" y="86"/><ellipse cx="473.18" cy="102" fill="#ADD1B2" rx="11" ry="11" style="stroke:#A80036;stroke-width:1.0;"/><path d="M475.9456,97.875 Q476.1019,97.6563 476.2894,97.5469 Q476.4769,97.4375 476.6956,97.4375 Q477.0706,97.4375 477.305,97.7031 Q477.5394,97.9531 477.5394,98.5625 L477.5394,100.0156 Q477.5394,100.625 477.305,100.8906 Q477.0706,101.1563 476.6956,101.1563 Q476.3519,101.1563 476.1488,100.9531 Q475.9456,100.7656 475.8363,100.25 Q475.7894,99.8906 475.6019,99.7031 Q475.2738,99.3281 474.6644,99.1094 Q474.055,98.8906 473.43,98.8906 Q472.6644,98.8906 472.0238,99.2188 Q471.3988,99.5469 470.8988,100.2969 Q470.4144,101.0469 470.4144,102.0781 L470.4144,103.1719 Q470.4144,104.4063 471.305,105.2344 Q472.1956,106.0469 473.7894,106.0469 Q474.7269,106.0469 475.3831,105.7969 Q475.7738,105.6406 476.1956,105.2031 Q476.4613,104.9375 476.6019,104.8594 Q476.7581,104.7813 476.9613,104.7813 Q477.2894,104.7813 477.5394,105.0469 Q477.805,105.2969 477.805,105.6406 Q477.805,105.9844 477.4613,106.3906 Q476.9613,106.9688 476.1644,107.2969 Q475.0863,107.75 473.7894,107.75 Q472.2738,107.75 471.0706,107.125 Q470.0863,106.625 469.3988,105.5625 Q468.7113,104.4844 468.7113,103.2031 L468.7113,102.0469 Q468.7113,100.7188 469.3206,99.5781 Q469.9456,98.4219 471.0394,97.8125 Q472.1331,97.1875 473.3675,97.1875 Q474.1019,97.1875 474.7425,97.3594 Q475.3988,97.5156 475.9456,97.875 Z " fill="#000000"/><text fill="#000000" font-family="sans-serif" font-size="12" lengthAdjust="spacing" textLength="34" x="487.18" y="106.9102">Game</text><line style="stroke:#A80036;stroke-width:1.5;" x1="459.18" x2="523.18" y1="118" y2="118"/><line style="stroke:#A80036;stroke-width:1.5;" x1="459.18" x2="523.18" y1="126" y2="126"/><!--MD5=[34163ed00363126c40aa44054a1bdae8]
class pauseStuff--><rect codeLine="26" fill="#FEFECE" filter="url(#f13h0x3shlfdx0)" height="48" id="pauseStuff" style="stroke:#A80036;stroke-width:1.5;" width="90" x="333.18" y="86"/><ellipse cx="348.18" cy="102" fill="#B4A7E5" rx="11" ry="11" style="stroke:#A80036;stroke-width:1.0;"/><path d="M349.1331,98.6406 L349.1331,105.2969 L350.8519,105.2969 Q351.4613,105.2969 351.7269,105.5313 Q351.9925,105.7656 351.9925,106.1563 Q351.9925,106.5313 351.7269,106.7656 Q351.4613,107 350.8519,107 L345.7113,107 Q345.1019,107 344.8363,106.7656 Q344.5706,106.5313 344.5706,106.1406 Q344.5706,105.7656 344.8363,105.5313 Q345.1019,105.2969 345.7113,105.2969 L347.43,105.2969 L347.43,98.6406 L345.7113,98.6406 Q345.1019,98.6406 344.8363,98.4063 Q344.5706,98.1719 344.5706,97.7813 Q344.5706,97.4063 344.8363,97.1719 Q345.1019,96.9375 345.7113,96.9375 L350.8519,96.9375 Q351.4613,96.9375 351.7269,97.1719 Q351.9925,97.4063 351.9925,97.7813 Q351.9925,98.1719 351.7269,98.4063 Q351.4613,98.6406 350.8519,98.6406 L349.1331,98.6406 Z " fill="#000000"/><text fill="#000000" font-family="sans-serif" font-size="12" font-style="italic" lengthAdjust="spacing" textLength="58" x="362.18" y="106.9102">pauseStuff</text><line style="stroke:#A80036;stroke-width:1.5;" x1="334.18" x2="422.18" y1="118" y2="118"/><line style="stroke:#A80036;stroke-width:1.5;" x1="334.18" x2="422.18" y1="126" y2="126"/><!--MD5=[abf6557205538a695eba1e858d4e5ffd]
class AmericanNewGameStrategy--><rect fill="#FEFECE" filter="url(#f13h0x3shlfdx0)" height="48" id="AmericanNewGameStrategy" style="stroke:#A80036;stroke-width:1.5;" width="187" x="1182.68" y="194"/><ellipse cx="1197.68" cy="210" fill="#ADD1B2" rx="11" ry="11" style="stroke:#A80036;stroke-width:1.0;"/><path d="M1200.4456,205.875 Q1200.6019,205.6563 1200.7894,205.5469 Q1200.9769,205.4375 1201.1956,205.4375 Q1201.5706,205.4375 1201.805,205.7031 Q1202.0394,205.9531 1202.0394,206.5625 L1202.0394,208.0156 Q1202.0394,208.625 1201.805,208.8906 Q1201.5706,209.1563 1201.1956,209.1563 Q1200.8519,209.1563 1200.6488,208.9531 Q1200.4456,208.7656 1200.3363,208.25 Q1200.2894,207.8906 1200.1019,207.7031 Q1199.7738,207.3281 1199.1644,207.1094 Q1198.555,206.8906 1197.93,206.8906 Q1197.1644,206.8906 1196.5238,207.2188 Q1195.8988,207.5469 1195.3988,208.2969 Q1194.9144,209.0469 1194.9144,210.0781 L1194.9144,211.1719 Q1194.9144,212.4063 1195.805,213.2344 Q1196.6956,214.0469 1198.2894,214.0469 Q1199.2269,214.0469 1199.8831,213.7969 Q1200.2738,213.6406 1200.6956,213.2031 Q1200.9613,212.9375 1201.1019,212.8594 Q1201.2581,212.7813 1201.4613,212.7813 Q1201.7894,212.7813 1202.0394,213.0469 Q1202.305,213.2969 1202.305,213.6406 Q1202.305,213.9844 1201.9613,214.3906 Q1201.4613,214.9688 1200.6644,215.2969 Q1199.5863,215.75 1198.2894,215.75 Q1196.7738,215.75 1195.5706,215.125 Q1194.5863,214.625 1193.8988,213.5625 Q1193.2113,212.4844 1193.2113,211.2031 L1193.2113,210.0469 Q1193.2113,208.7188 1193.8206,207.5781 Q1194.4456,206.4219 1195.5394,205.8125 Q1196.6331,205.1875 1197.8675,205.1875 Q1198.6019,205.1875 1199.2425,205.3594 Q1199.8988,205.5156 1200.4456,205.875 Z " fill="#000000"/><text fill="#000000" font-family="sans-serif" font-size="12" lengthAdjust="spacing" textLength="155" x="1211.68" y="214.9102">AmericanNewGameStrategy</text><line style="stroke:#A80036;stroke-width:1.5;" x1="1183.68" x2="1368.68" y1="226" y2="226"/><line style="stroke:#A80036;stroke-width:1.5;" x1="1183.68" x2="1368.68" y1="234" y2="234"/><!--MD5=[544975a23897aa00fa15097f066f852b]
class NewGameStrategy--><rect codeLine="31" fill="#FEFECE" filter="url(#f13h0x3shlfdx0)" height="48" id="NewGameStrategy" style="stroke:#A80036;stroke-width:1.5;" width="135" x="1093.68" y="318"/><ellipse cx="1108.68" cy="334" fill="#B4A7E5" rx="11" ry="11" style="stroke:#A80036;stroke-width:1.0;"/><path d="M1109.6331,330.6406 L1109.6331,337.2969 L1111.3519,337.2969 Q1111.9613,337.2969 1112.2269,337.5313 Q1112.4925,337.7656 1112.4925,338.1563 Q1112.4925,338.5313 1112.2269,338.7656 Q1111.9613,339 1111.3519,339 L1106.2113,339 Q1105.6019,339 1105.3363,338.7656 Q1105.0706,338.5313 1105.0706,338.1406 Q1105.0706,337.7656 1105.3363,337.5313 Q1105.6019,337.2969 1106.2113,337.2969 L1107.93,337.2969 L1107.93,330.6406 L1106.2113,330.6406 Q1105.6019,330.6406 1105.3363,330.4063 Q1105.0706,330.1719 1105.0706,329.7813 Q1105.0706,329.4063 1105.3363,329.1719 Q1105.6019,328.9375 1106.2113,328.9375 L1111.3519,328.9375 Q1111.9613,328.9375 1112.2269,329.1719 Q1112.4925,329.4063 1112.4925,329.7813 Q1112.4925,330.1719 1112.2269,330.4063 Q1111.9613,330.6406 1111.3519,330.6406 L1109.6331,330.6406 Z " fill="#000000"/><text fill="#000000" font-family="sans-serif" font-size="12" font-style="italic" lengthAdjust="spacing" textLength="103" x="1122.68" y="338.9102">NewGameStrategy</text><line style="stroke:#A80036;stroke-width:1.5;" x1="1094.68" x2="1227.68" y1="350" y2="350"/><line style="stroke:#A80036;stroke-width:1.5;" x1="1094.68" x2="1227.68" y1="358" y2="358"/><!--MD5=[fac535d2d78f7f905aed41d35f9ed5d8]
class InternationalNewGameStrategy--><rect fill="#FEFECE" filter="url(#f13h0x3shlfdx0)" height="48" id="InternationalNewGameStrategy" style="stroke:#A80036;stroke-width:1.5;" width="203" x="944.68" y="194"/><ellipse cx="959.68" cy="210" fill="#ADD1B2" rx="11" ry="11" style="stroke:#A80036;stroke-width:1.0;"/><path d="M962.4456,205.875 Q962.6019,205.6563 962.7894,205.5469 Q962.9769,205.4375 963.1956,205.4375 Q963.5706,205.4375 963.805,205.7031 Q964.0394,205.9531 964.0394,206.5625 L964.0394,208.0156 Q964.0394,208.625 963.805,208.8906 Q963.5706,209.1563 963.1956,209.1563 Q962.8519,209.1563 962.6488,208.9531 Q962.4456,208.7656 962.3363,208.25 Q962.2894,207.8906 962.1019,207.7031 Q961.7738,207.3281 961.1644,207.1094 Q960.555,206.8906 959.93,206.8906 Q959.1644,206.8906 958.5238,207.2188 Q957.8988,207.5469 957.3988,208.2969 Q956.9144,209.0469 956.9144,210.0781 L956.9144,211.1719 Q956.9144,212.4063 957.805,213.2344 Q958.6956,214.0469 960.2894,214.0469 Q961.2269,214.0469 961.8831,213.7969 Q962.2738,213.6406 962.6956,213.2031 Q962.9613,212.9375 963.1019,212.8594 Q963.2581,212.7813 963.4613,212.7813 Q963.7894,212.7813 964.0394,213.0469 Q964.305,213.2969 964.305,213.6406 Q964.305,213.9844 963.9613,214.3906 Q963.4613,214.9688 962.6644,215.2969 Q961.5863,215.75 960.2894,215.75 Q958.7738,215.75 957.5706,215.125 Q956.5863,214.625 955.8988,213.5625 Q955.2113,212.4844 955.2113,211.2031 L955.2113,210.0469 Q955.2113,208.7188 955.8206,207.5781 Q956.4456,206.4219 957.5394,205.8125 Q958.6331,205.1875 959.8675,205.1875 Q960.6019,205.1875 961.2425,205.3594 Q961.8988,205.5156 962.4456,205.875 Z " fill="#000000"/><text fill="#000000" font-family="sans-serif" font-size="12" lengthAdjust="spacing" textLength="171" x="973.68" y="214.9102">InternationalNewGameStrategy</text><line style="stroke:#A80036;stroke-width:1.5;" x1="945.68" x2="1146.68" y1="226" y2="226"/><line style="stroke:#A80036;stroke-width:1.5;" x1="945.68" x2="1146.68" y1="234" y2="234"/><!--MD5=[d5b2c1087ffd67f7e0cbb87d3e335bce]
class WinRule--><rect codeLine="30" fill="#FEFECE" filter="url(#f13h0x3shlfdx0)" height="48" id="WinRule" style="stroke:#A80036;stroke-width:1.5;" width="79" x="563.68" y="318"/><ellipse cx="578.68" cy="334" fill="#B4A7E5" rx="11" ry="11" style="stroke:#A80036;stroke-width:1.0;"/><path d="M579.6331,330.6406 L579.6331,337.2969 L581.3519,337.2969 Q581.9613,337.2969 582.2269,337.5313 Q582.4925,337.7656 582.4925,338.1563 Q582.4925,338.5313 582.2269,338.7656 Q581.9613,339 581.3519,339 L576.2113,339 Q575.6019,339 575.3363,338.7656 Q575.0706,338.5313 575.0706,338.1406 Q575.0706,337.7656 575.3363,337.5313 Q575.6019,337.2969 576.2113,337.2969 L577.93,337.2969 L577.93,330.6406 L576.2113,330.6406 Q575.6019,330.6406 575.3363,330.4063 Q575.0706,330.1719 575.0706,329.7813 Q575.0706,329.4063 575.3363,329.1719 Q575.6019,328.9375 576.2113,328.9375 L581.3519,328.9375 Q581.9613,328.9375 582.2269,329.1719 Q582.4925,329.4063 582.4925,329.7813 Q582.4925,330.1719 582.2269,330.4063 Q581.9613,330.6406 581.3519,330.6406 L579.6331,330.6406 Z " fill="#000000"/><text fill="#000000" font-family="sans-serif" font-size="12" font-style="italic" lengthAdjust="spacing" textLength="47" x="592.68" y="338.9102">WinRule</text><line style="stroke:#A80036;stroke-width:1.5;" x1="564.68" x2="641.68" y1="350" y2="350"/><line style="stroke:#A80036;stroke-width:1.5;" x1="564.68" x2="641.68" y1="358" y2="358"/><!--MD5=[695b5bf41aa77b625427b67ea1d40852]
class HitStrategy--><rect codeLine="32" fill="#FEFECE" filter="url(#f13h0x3shlfdx0)" height="48" id="HitStrategy" style="stroke:#A80036;stroke-width:1.5;" width="92" x="765.18" y="318"/><ellipse cx="780.18" cy="334" fill="#B4A7E5" rx="11" ry="11" style="stroke:#A80036;stroke-width:1.0;"/><path d="M781.1331,330.6406 L781.1331,337.2969 L782.8519,337.2969 Q783.4613,337.2969 783.7269,337.5313 Q783.9925,337.7656 783.9925,338.1563 Q783.9925,338.5313 783.7269,338.7656 Q783.4613,339 782.8519,339 L777.7113,339 Q777.1019,339 776.8363,338.7656 Q776.5706,338.5313 776.5706,338.1406 Q776.5706,337.7656 776.8363,337.5313 Q777.1019,337.2969 777.7113,337.2969 L779.43,337.2969 L779.43,330.6406 L777.7113,330.6406 Q777.1019,330.6406 776.8363,330.4063 Q776.5706,330.1719 776.5706,329.7813 Q776.5706,329.4063 776.8363,329.1719 Q777.1019,328.9375 777.7113,328.9375 L782.8519,328.9375 Q783.4613,328.9375 783.7269,329.1719 Q783.9925,329.4063 783.9925,329.7813 Q783.9925,330.1719 783.7269,330.4063 Q783.4613,330.6406 782.8519,330.6406 L781.1331,330.6406 Z " fill="#000000"/><text fill="#000000" font-family="sans-serif" font-size="12" font-style="italic" lengthAdjust="spacing" textLength="60" x="794.18" y="338.9102">HitStrategy</text><line style="stroke:#A80036;stroke-width:1.5;" x1="766.18" x2="856.18" y1="350" y2="350"/><line style="stroke:#A80036;stroke-width:1.5;" x1="766.18" x2="856.18" y1="358" y2="358"/><!--MD5=[95b6294731d8f8cf5dc56ddfb2d8c0e0]
class MyWinRule--><rect fill="#FEFECE" filter="url(#f13h0x3shlfdx0)" height="48" id="MyWinRule" style="stroke:#A80036;stroke-width:1.5;" width="93" x="556.68" y="194"/><ellipse cx="571.68" cy="210" fill="#ADD1B2" rx="11" ry="11" style="stroke:#A80036;stroke-width:1.0;"/><path d="M574.4456,205.875 Q574.6019,205.6563 574.7894,205.5469 Q574.9769,205.4375 575.1956,205.4375 Q575.5706,205.4375 575.805,205.7031 Q576.0394,205.9531 576.0394,206.5625 L576.0394,208.0156 Q576.0394,208.625 575.805,208.8906 Q575.5706,209.1563 575.1956,209.1563 Q574.8519,209.1563 574.6488,208.9531 Q574.4456,208.7656 574.3363,208.25 Q574.2894,207.8906 574.1019,207.7031 Q573.7738,207.3281 573.1644,207.1094 Q572.555,206.8906 571.93,206.8906 Q571.1644,206.8906 570.5238,207.2188 Q569.8988,207.5469 569.3988,208.2969 Q568.9144,209.0469 568.9144,210.0781 L568.9144,211.1719 Q568.9144,212.4063 569.805,213.2344 Q570.6956,214.0469 572.2894,214.0469 Q573.2269,214.0469 573.8831,213.7969 Q574.2738,213.6406 574.6956,213.2031 Q574.9613,212.9375 575.1019,212.8594 Q575.2581,212.7813 575.4613,212.7813 Q575.7894,212.7813 576.0394,213.0469 Q576.305,213.2969 576.305,213.6406 Q576.305,213.9844 575.9613,214.3906 Q575.4613,214.9688 574.6644,215.2969 Q573.5863,215.75 572.2894,215.75 Q570.7738,215.75 569.5706,215.125 Q568.5863,214.625 567.8988,213.5625 Q567.2113,212.4844 567.2113,211.2031 L567.2113,210.0469 Q567.2113,208.7188 567.8206,207.5781 Q568.4456,206.4219 569.5394,205.8125 Q570.6331,205.1875 571.8675,205.1875 Q572.6019,205.1875 573.2425,205.3594 Q573.8988,205.5156 574.4456,205.875 Z " fill="#000000"/><text fill="#000000" font-family="sans-serif" font-size="12" lengthAdjust="spacing" textLength="61" x="585.68" y="214.9102">MyWinRule</text><line style="stroke:#A80036;stroke-width:1.5;" x1="557.68" x2="648.68" y1="226" y2="226"/><line style="stroke:#A80036;stroke-width:1.5;" x1="557.68" x2="648.68" y1="234" y2="234"/><!--MD5=[7ca84fe84c8bd0a4c8ea89bb9a458d12]
class Soft17--><rect fill="#FEFECE" filter="url(#f13h0x3shlfdx0)" height="48" id="Soft17" style="stroke:#A80036;stroke-width:1.5;" width="67" x="842.68" y="194"/><ellipse cx="857.68" cy="210" fill="#ADD1B2" rx="11" ry="11" style="stroke:#A80036;stroke-width:1.0;"/><path d="M860.4456,205.875 Q860.6019,205.6563 860.7894,205.5469 Q860.9769,205.4375 861.1956,205.4375 Q861.5706,205.4375 861.805,205.7031 Q862.0394,205.9531 862.0394,206.5625 L862.0394,208.0156 Q862.0394,208.625 861.805,208.8906 Q861.5706,209.1563 861.1956,209.1563 Q860.8519,209.1563 860.6488,208.9531 Q860.4456,208.7656 860.3363,208.25 Q860.2894,207.8906 860.1019,207.7031 Q859.7738,207.3281 859.1644,207.1094 Q858.555,206.8906 857.93,206.8906 Q857.1644,206.8906 856.5238,207.2188 Q855.8988,207.5469 855.3988,208.2969 Q854.9144,209.0469 854.9144,210.0781 L854.9144,211.1719 Q854.9144,212.4063 855.805,213.2344 Q856.6956,214.0469 858.2894,214.0469 Q859.2269,214.0469 859.8831,213.7969 Q860.2738,213.6406 860.6956,213.2031 Q860.9613,212.9375 861.1019,212.8594 Q861.2581,212.7813 861.4613,212.7813 Q861.7894,212.7813 862.0394,213.0469 Q862.305,213.2969 862.305,213.6406 Q862.305,213.9844 861.9613,214.3906 Q861.4613,214.9688 860.6644,215.2969 Q859.5863,215.75 858.2894,215.75 Q856.7738,215.75 855.5706,215.125 Q854.5863,214.625 853.8988,213.5625 Q853.2113,212.4844 853.2113,211.2031 L853.2113,210.0469 Q853.2113,208.7188 853.8206,207.5781 Q854.4456,206.4219 855.5394,205.8125 Q856.6331,205.1875 857.8675,205.1875 Q858.6019,205.1875 859.2425,205.3594 Q859.8988,205.5156 860.4456,205.875 Z " fill="#000000"/><text fill="#000000" font-family="sans-serif" font-size="12" lengthAdjust="spacing" textLength="35" x="871.68" y="214.9102">Soft17</text><line style="stroke:#A80036;stroke-width:1.5;" x1="843.68" x2="908.68" y1="226" y2="226"/><line style="stroke:#A80036;stroke-width:1.5;" x1="843.68" x2="908.68" y1="234" y2="234"/><!--MD5=[9eb7dfcb8a0fa32dc835796c5daf564a]
class BasicHitStrategy--><rect fill="#FEFECE" filter="url(#f13h0x3shlfdx0)" height="48" id="BasicHitStrategy" style="stroke:#A80036;stroke-width:1.5;" width="122" x="685.18" y="194"/><ellipse cx="700.18" cy="210" fill="#ADD1B2" rx="11" ry="11" style="stroke:#A80036;stroke-width:1.0;"/><path d="M702.9456,205.875 Q703.1019,205.6563 703.2894,205.5469 Q703.4769,205.4375 703.6956,205.4375 Q704.0706,205.4375 704.305,205.7031 Q704.5394,205.9531 704.5394,206.5625 L704.5394,208.0156 Q704.5394,208.625 704.305,208.8906 Q704.0706,209.1563 703.6956,209.1563 Q703.3519,209.1563 703.1488,208.9531 Q702.9456,208.7656 702.8363,208.25 Q702.7894,207.8906 702.6019,207.7031 Q702.2738,207.3281 701.6644,207.1094 Q701.055,206.8906 700.43,206.8906 Q699.6644,206.8906 699.0238,207.2188 Q698.3988,207.5469 697.8988,208.2969 Q697.4144,209.0469 697.4144,210.0781 L697.4144,211.1719 Q697.4144,212.4063 698.305,213.2344 Q699.1956,214.0469 700.7894,214.0469 Q701.7269,214.0469 702.3831,213.7969 Q702.7738,213.6406 703.1956,213.2031 Q703.4613,212.9375 703.6019,212.8594 Q703.7581,212.7813 703.9613,212.7813 Q704.2894,212.7813 704.5394,213.0469 Q704.805,213.2969 704.805,213.6406 Q704.805,213.9844 704.4613,214.3906 Q703.9613,214.9688 703.1644,215.2969 Q702.0863,215.75 700.7894,215.75 Q699.2738,215.75 698.0706,215.125 Q697.0863,214.625 696.3988,213.5625 Q695.7113,212.4844 695.7113,211.2031 L695.7113,210.0469 Q695.7113,208.7188 696.3206,207.5781 Q696.9456,206.4219 698.0394,205.8125 Q699.1331,205.1875 700.3675,205.1875 Q701.1019,205.1875 701.7425,205.3594 Q702.3988,205.5156 702.9456,205.875 Z " fill="#000000"/><text fill="#000000" font-family="sans-serif" font-size="12" lengthAdjust="spacing" textLength="90" x="714.18" y="214.9102">BasicHitStrategy</text><line style="stroke:#A80036;stroke-width:1.5;" x1="686.18" x2="806.18" y1="226" y2="226"/><line style="stroke:#A80036;stroke-width:1.5;" x1="686.18" x2="806.18" y1="234" y2="234"/><!--MD5=[c42b5aca17d418aa55dfafe1af04ae10]
class RulesFactory--><rect fill="#FEFECE" filter="url(#f13h0x3shlfdx0)" height="48" id="RulesFactory" style="stroke:#A80036;stroke-width:1.5;" width="104" x="824.18" y="86"/><ellipse cx="839.18" cy="102" fill="#ADD1B2" rx="11" ry="11" style="stroke:#A80036;stroke-width:1.0;"/><path d="M841.9456,97.875 Q842.1019,97.6563 842.2894,97.5469 Q842.4769,97.4375 842.6956,97.4375 Q843.0706,97.4375 843.305,97.7031 Q843.5394,97.9531 843.5394,98.5625 L843.5394,100.0156 Q843.5394,100.625 843.305,100.8906 Q843.0706,101.1563 842.6956,101.1563 Q842.3519,101.1563 842.1488,100.9531 Q841.9456,100.7656 841.8363,100.25 Q841.7894,99.8906 841.6019,99.7031 Q841.2738,99.3281 840.6644,99.1094 Q840.055,98.8906 839.43,98.8906 Q838.6644,98.8906 838.0238,99.2188 Q837.3988,99.5469 836.8988,100.2969 Q836.4144,101.0469 836.4144,102.0781 L836.4144,103.1719 Q836.4144,104.4063 837.305,105.2344 Q838.1956,106.0469 839.7894,106.0469 Q840.7269,106.0469 841.3831,105.7969 Q841.7738,105.6406 842.1956,105.2031 Q842.4613,104.9375 842.6019,104.8594 Q842.7581,104.7813 842.9613,104.7813 Q843.2894,104.7813 843.5394,105.0469 Q843.805,105.2969 843.805,105.6406 Q843.805,105.9844 843.4613,106.3906 Q842.9613,106.9688 842.1644,107.2969 Q841.0863,107.75 839.7894,107.75 Q838.2738,107.75 837.0706,107.125 Q836.0863,106.625 835.3988,105.5625 Q834.7113,104.4844 834.7113,103.2031 L834.7113,102.0469 Q834.7113,100.7188 835.3206,99.5781 Q835.9456,98.4219 837.0394,97.8125 Q838.1331,97.1875 839.3675,97.1875 Q840.1019,97.1875 840.7425,97.3594 Q841.3988,97.5156 841.9456,97.875 Z " fill="#000000"/><text fill="#000000" font-family="sans-serif" font-size="12" lengthAdjust="spacing" textLength="72" x="853.18" y="106.9102">RulesFactory</text><line style="stroke:#A80036;stroke-width:1.5;" x1="825.18" x2="927.18" y1="118" y2="118"/><line style="stroke:#A80036;stroke-width:1.5;" x1="825.18" x2="927.18" y1="126" y2="126"/><!--MD5=[b722d40715ad68616c339c1c71234e8a]
link App to p1--><path codeLine="4" d="M231.83,134 C232.28,150 232.89,171.45 233.37,188.53 " fill="none" id="App-to-p1" style="stroke:#A80036;stroke-width:1.0;stroke-dasharray:7.0,7.0;"/><polygon fill="#A80036" points="233.52,193.68,237.2613,184.5694,233.3772,188.682,229.2646,184.7979,233.52,193.68" style="stroke:#A80036;stroke-width:1.0;"/><!--MD5=[908fec1c18b5858b5abd59ef0ef873e9]
reverse link View to EnglishView--><path codeLine="10" d="M185.53,376.37 C163.48,392.49 137.57,411.43 117.74,425.93 " fill="none" id="View-backto-EnglishView" style="stroke:#A80036;stroke-width:1.0;stroke-dasharray:7.0,7.0;"/><polygon fill="none" points="181.56,370.6,201.84,364.45,189.82,381.9,181.56,370.6" style="stroke:#A80036;stroke-width:1.0;"/><!--MD5=[ff45ad123ccb8c24f9d5296b720f76d3]
reverse link View to SwedishView--><path codeLine="11" d="M228.34,386.02 C227.44,399.58 226.49,414.04 225.72,425.68 " fill="none" id="View-backto-SwedishView" style="stroke:#A80036;stroke-width:1.0;stroke-dasharray:7.0,7.0;"/><polygon fill="none" points="221.36,385.5,229.66,366,235.33,386.42,221.36,385.5" style="stroke:#A80036;stroke-width:1.0;"/><!--MD5=[6fcc05faa364e474bbb7a0acb9d0c659]
link EnglishView to Options--><path codeLine="12" d="M86.18,474 C86.18,490 86.18,511.45 86.18,528.53 " fill="none" id="EnglishView-to-Options" style="stroke:#A80036;stroke-width:1.0;stroke-dasharray:7.0,7.0;"/><polygon fill="#A80036" points="86.18,533.68,90.18,524.68,86.18,528.68,82.18,524.68,86.18,533.68" style="stroke:#A80036;stroke-width:1.0;"/><!--MD5=[bdf94b71dfb170d3c3e39968f518e061]
link SwedishView to Options--><path codeLine="13" d="M194.24,474 C172.59,490.62 143.31,513.12 120.69,530.5 " fill="none" id="SwedishView-to-Options" style="stroke:#A80036;stroke-width:1.0;stroke-dasharray:7.0,7.0;"/><polygon fill="#A80036" points="116.54,533.68,126.1169,531.3814,120.509,530.639,121.2513,525.0311,116.54,533.68" style="stroke:#A80036;stroke-width:1.0;"/><!--MD5=[1bca564d82415ec85f37f60108aaae3e]
link Dealer to Deck--><path codeLine="19" d="M487.75,242.23 C488.24,262.25 488.96,291.2 489.48,312.59 " fill="none" id="Dealer-to-Deck" style="stroke:#A80036;stroke-width:1.0;"/><polygon fill="#A80036" points="489.61,317.85,493.3773,308.7502,489.4815,312.8517,485.38,308.9558,489.61,317.85" style="stroke:#A80036;stroke-width:1.0;"/><text fill="#000000" font-family="sans-serif" font-size="13" lengthAdjust="spacing" textLength="7" x="481.5671" y="307.1517">1</text><!--MD5=[c905f1b8e8f3426bca82a4905da2e16e]
link Deck to Card--><path codeLine="20" d="M476.29,366 C466.55,382.14 453.46,403.82 443.1,420.97 " fill="none" id="Deck-to-Card" style="stroke:#A80036;stroke-width:1.0;"/><polygon fill="#A80036" points="440.26,425.68,448.3426,420.0522,442.8493,421.4027,441.4989,415.9094,440.26,425.68" style="stroke:#A80036;stroke-width:1.0;"/><text fill="#000000" font-family="sans-serif" font-size="13" lengthAdjust="spacing" textLength="5" x="438.0826" y="415.34">*</text><!--MD5=[991dc61e9b378ab13bcea24a9de39af2]
link Dealer to p2--><path codeLine="21" d="M468.43,242.18 C460.57,251.96 451.38,263.49 443.18,274 C436.19,282.96 428.73,292.66 421.75,301.82 " fill="none" id="Dealer-to-p2" style="stroke:#A80036;stroke-width:1.0;"/><polygon fill="none" points="427.18,306.25,409.51,317.95,416.03,297.79,427.18,306.25" style="stroke:#A80036;stroke-width:1.0;"/><!--MD5=[4a33c3a28d97739218f3bd8a8ad3e4b0]
link Game to p2--><path codeLine="22" d="M472.69,134.16 C460.63,150.19 445.3,172.44 435.18,194 C416.69,233.36 404.28,282.42 397.72,312.73 " fill="none" id="Game-to-p2" style="stroke:#A80036;stroke-width:1.0;"/><polygon fill="#A80036" points="396.64,317.79,402.4259,309.8198,397.6808,312.8995,394.6011,308.1545,396.64,317.79" style="stroke:#A80036;stroke-width:1.0;"/><text fill="#000000" font-family="sans-serif" font-size="13" lengthAdjust="spacing" textLength="7" x="389.886" y="307.0763">1</text><!--MD5=[77be7631d7be8d3ee5e97d48f6c0382d]
link Game to Dealer--><path codeLine="23" d="M490.31,134 C489.71,150 488.9,171.45 488.25,188.53 " fill="none" id="Game-to-Dealer" style="stroke:#A80036;stroke-width:1.0;"/><polygon fill="#A80036" points="488.06,193.68,492.3913,184.8347,488.2456,188.6834,484.3968,184.5377,488.06,193.68" style="stroke:#A80036;stroke-width:1.0;"/><text fill="#000000" font-family="sans-serif" font-size="13" lengthAdjust="spacing" textLength="7" x="480.4214" y="183.34">1</text><!--MD5=[5db549e1792a888d9941b8d63aff0288]
link pauseStuff to View--><path codeLine="24" d="M364.58,134.1 C346.48,164.61 313.27,219.87 283.18,266 C272.75,281.99 260.61,299.55 250.69,313.66 " fill="none" id="pauseStuff-to-View" style="stroke:#A80036;stroke-width:1.0;stroke-dasharray:7.0,7.0;"/><polygon fill="#A80036" points="247.68,317.92,256.1394,312.8763,250.5645,313.836,249.6049,308.2611,247.68,317.92" style="stroke:#A80036;stroke-width:1.0;"/><!--MD5=[2b82ad076cf1d327580e90f59f989e7d]
reverse link pauseStuff to p1--><path codeLine="25" d="M330.72,145.94 C309.42,161.61 284.88,179.68 265.86,193.68 " fill="none" id="pauseStuff-backto-p1" style="stroke:#A80036;stroke-width:1.0;stroke-dasharray:7.0,7.0;"/><polygon fill="none" points="326.68,140.22,346.93,134,334.98,151.49,326.68,140.22" style="stroke:#A80036;stroke-width:1.0;"/><!--MD5=[4912de9e520c4a02d319d689241cf9c4]
link AmericanNewGameStrategy to NewGameStrategy--><path codeLine="28" d="M1254.28,242.23 C1238.05,259.45 1215.59,283.28 1196.8,303.22 " fill="none" id="AmericanNewGameStrategy-to-NewGameStrategy" style="stroke:#A80036;stroke-width:1.0;stroke-dasharray:7.0,7.0;"/><polygon fill="none" points="1201.81,308.1,1183,317.85,1191.62,298.5,1201.81,308.1" style="stroke:#A80036;stroke-width:1.0;"/><!--MD5=[4e98f88eeb0708a45929564580de7a0f]
link InternationalNewGameStrategy to NewGameStrategy--><path codeLine="29" d="M1068.08,242.23 C1084.31,259.45 1106.77,283.28 1125.56,303.22 " fill="none" id="InternationalNewGameStrategy-to-NewGameStrategy" style="stroke:#A80036;stroke-width:1.0;stroke-dasharray:7.0,7.0;"/><polygon fill="none" points="1130.74,298.5,1139.36,317.85,1120.55,308.1,1130.74,298.5" style="stroke:#A80036;stroke-width:1.0;"/><!--MD5=[4e7e4f3ae44c9d13c3e5f3ff40019549]
link MyWinRule to WinRule--><path codeLine="33" d="M603.18,242.23 C603.18,257.92 603.18,279.1 603.18,297.83 " fill="none" id="MyWinRule-to-WinRule" style="stroke:#A80036;stroke-width:1.0;stroke-dasharray:7.0,7.0;"/><polygon fill="none" points="610.18,297.85,603.18,317.85,596.18,297.85,610.18,297.85" style="stroke:#A80036;stroke-width:1.0;"/><!--MD5=[37d9226ead1d9591f787b6c8d410834c]
link Soft17 to HitStrategy--><path codeLine="34" d="M863.8,242.23 C855.13,258.52 843.3,280.71 833.05,299.94 " fill="none" id="Soft17-to-HitStrategy" style="stroke:#A80036;stroke-width:1.0;stroke-dasharray:7.0,7.0;"/><polygon fill="none" points="839.1,303.49,823.51,317.85,826.74,296.91,839.1,303.49" style="stroke:#A80036;stroke-width:1.0;"/><!--MD5=[fd3e4d101c10206c3ad5526762a95a78]
link BasicHitStrategy to HitStrategy--><path codeLine="35" d="M758.56,242.23 C767.23,258.52 779.06,280.71 789.31,299.94 " fill="none" id="BasicHitStrategy-to-HitStrategy" style="stroke:#A80036;stroke-width:1.0;stroke-dasharray:7.0,7.0;"/><polygon fill="none" points="795.62,296.91,798.85,317.85,783.26,303.49,795.62,296.91" style="stroke:#A80036;stroke-width:1.0;"/><!--MD5=[6f6995af2cfca2440014f417b61964db]
link RulesFactory to Soft17--><path codeLine="36" d="M876.18,134 C876.18,150 876.18,171.45 876.18,188.53 " fill="none" id="RulesFactory-to-Soft17" style="stroke:#A80036;stroke-width:1.0;stroke-dasharray:7.0,7.0;"/><polygon fill="#A80036" points="876.18,193.68,880.18,184.68,876.18,188.68,872.18,184.68,876.18,193.68" style="stroke:#A80036;stroke-width:1.0;"/><!--MD5=[78e29f2fd2c962a1cccb2a4a250e19cc]
link RulesFactory to AmericanNewGameStrategy--><path codeLine="37" d="M928.47,124.86 C993.23,142.02 1104.66,171.55 1183.92,192.55 " fill="none" id="RulesFactory-to-AmericanNewGameStrategy" style="stroke:#A80036;stroke-width:1.0;stroke-dasharray:7.0,7.0;"/><polygon fill="#A80036" points="1189.09,193.92,1181.4052,187.7601,1184.2548,192.6468,1179.3681,195.4964,1189.09,193.92" style="stroke:#A80036;stroke-width:1.0;"/><!--MD5=[b96d084edfd3900841e2b1fb5f243a75]
link RulesFactory to MyWinRule--><path codeLine="38" d="M824.03,132.47 C822.74,132.98 821.45,133.5 820.18,134 C763.74,156.38 698.66,181.13 654.6,197.74 " fill="none" id="RulesFactory-to-MyWinRule" style="stroke:#A80036;stroke-width:1.0;stroke-dasharray:7.0,7.0;"/><polygon fill="#A80036" points="649.87,199.52,659.7035,200.069,654.5452,197.7472,656.867,192.5888,649.87,199.52" style="stroke:#A80036;stroke-width:1.0;"/><!--MD5=[d6fd5b5b96ad7e774c77ddc12f9ae6e3]
link App to View--><path codeLine="43" d="M213.66,134.26 C202.82,150.16 189.92,172.22 184.18,194 C176.03,224.94 175.34,235.25 184.18,266 C189.1,283.13 199.22,300.14 208.8,313.61 " fill="none" id="App-to-View" style="stroke:#A80036;stroke-width:1.0;stroke-dasharray:7.0,7.0;"/><polygon fill="#A80036" points="211.76,317.68,209.6974,308.0496,208.8174,313.6376,203.2294,312.7576,211.76,317.68" style="stroke:#A80036;stroke-width:1.0;"/><!--MD5=[215d527b3a4a3ff449ede91bf2ed72c3]
link p1 to View--><path codeLine="44" d="M233.61,242.23 C233.12,262.25 232.4,291.2 231.88,312.59 " fill="none" id="p1-to-View" style="stroke:#A80036;stroke-width:1.0;stroke-dasharray:7.0,7.0;"/><polygon fill="#A80036" points="231.75,317.85,235.98,308.9558,231.8785,312.8517,227.9827,308.7502,231.75,317.85" style="stroke:#A80036;stroke-width:1.0;"/><!--MD5=[b9bc3d5030acc52588c9d3fc663d95aa]
link p1 to Options--><path codeLine="45" d="M201.17,238.35 C150.73,270.09 56.4,338.51 19.18,426 C6.65,455.45 6,468.84 19.18,498 C24.92,510.71 34.9,521.77 45.43,530.77 " fill="none" id="p1-to-Options" style="stroke:#A80036;stroke-width:1.0;stroke-dasharray:7.0,7.0;"/><polygon fill="#A80036" points="49.33,533.99,44.938,525.1746,45.4749,530.806,39.8436,531.3428,49.33,533.99" style="stroke:#A80036;stroke-width:1.0;"/><!--MD5=[c9aadfe8797d50f2f9844f1b7b018477]
link View to Card--><path codeLine="47" d="M260.22,358.91 C276.88,368.03 298.2,379.68 317.18,390 C342.24,403.63 370.58,418.97 392.07,430.58 " fill="none" id="View-to-Card" style="stroke:#A80036;stroke-width:1.0;stroke-dasharray:7.0,7.0;"/><polygon fill="#A80036" points="396.55,433.01,390.5448,425.2038,392.1545,430.6267,386.7316,432.2365,396.55,433.01" style="stroke:#A80036;stroke-width:1.0;"/><!--MD5=[ff0ca14f5ced49f1d93506baf6d04dfb]
@startuml

package "controller" #DDDDDD {
  Class "Player" as p1
  App ..> p1
}

package view {
  interface View
  enum Options
  View <|.. EnglishView
  View <|.. SwedishView
  EnglishView ..> Options
  SwedishView ..> Options
}

package model as pkg1 #EECCEE{

    Class "Player" as p2
    Dealer - -> "1" Deck
    Deck - -> "*" Card
    Dealer - -|> p2
    Game - -> "1" p2
    Game - -> "1" Dealer
    pauseStuff ..> View
    pauseStuff <|.. p1
    interface pauseStuff
    package rules as pkg2 #EECCBB{
        AmericanNewGameStrategy ..|> NewGameStrategy
        InternationalNewGameStrategy ..|> NewGameStrategy
        interface WinRule
        interface NewGameStrategy
        interface HitStrategy
        MyWinRule ..|> WinRule
        Soft17 ..|> HitStrategy
        BasicHitStrategy ..|> HitStrategy
        RulesFactory ..> Soft17
        RulesFactory ..>  AmericanNewGameStrategy
        RulesFactory ..> MyWinRule
    }

}
    ' others to view
    App ..> View
    p1 ..> View
    p1 ..> Options
    ' view to controller
    View ..> Card

@enduml

@startuml

package "controller" #DDDDDD {
  Class "Player" as p1
  App ..> p1
}

package view {
  interface View
  enum Options
  View <|.. EnglishView
  View <|.. SwedishView
  EnglishView ..> Options
  SwedishView ..> Options
}

package model as pkg1 #EECCEE{

    Class "Player" as p2
    Dealer - -> "1" Deck
    Deck - -> "*" Card
    Dealer - -|> p2
    Game - -> "1" p2
    Game - -> "1" Dealer
    pauseStuff ..> View
    pauseStuff <|.. p1
    interface pauseStuff
    package rules as pkg2 #EECCBB{
        AmericanNewGameStrategy ..|> NewGameStrategy
        InternationalNewGameStrategy ..|> NewGameStrategy
        interface WinRule
        interface NewGameStrategy
        interface HitStrategy
        MyWinRule ..|> WinRule
        Soft17 ..|> HitStrategy
        BasicHitStrategy ..|> HitStrategy
        RulesFactory ..> Soft17
        RulesFactory ..>  AmericanNewGameStrategy
        RulesFactory ..> MyWinRule
    }

}
    App ..> View
    p1 ..> View
    p1 ..> Options
    View ..> Card

@enduml

PlantUML version 1.2021.00(Sun Jan 10 11:25:05 CET 2021)
(GPL source distribution)
Java Runtime: OpenJDK Runtime Environment
JVM: OpenJDK 64-Bit Server VM
Default Encoding: Cp1252
Language: en
Country: US
--></g></svg>