<?xml version="1.0" encoding="UTF-8" standalone="no"?><svg xmlns="http://www.w3.org/2000/svg" xmlns:xlink="http://www.w3.org/1999/xlink" contentScriptType="application/ecmascript" contentStyleType="text/css" height="1258px" preserveAspectRatio="none" style="width:894px;height:1258px;" version="1.1" viewBox="0 0 894 1258" width="894px" zoomAndPan="magnify"><defs><filter height="300%" id="f18aci133n3qbm" width="300%" x="-1" y="-1"><feGaussianBlur result="blurOut" stdDeviation="2.0"/><feColorMatrix in="blurOut" result="blurOut2" type="matrix" values="0 0 0 0 0 0 0 0 0 0 0 0 0 0 0 0 0 0 .4 0"/><feOffset dx="4.0" dy="4.0" in="blurOut2" result="blurOut3"/><feBlend in="SourceGraphic" in2="blurOut3" mode="normal"/></filter></defs><g><!--MD5=[84718776d214be480e4c259efcb737fc]
class Main--><rect codeLine="2" fill="#FEFECE" filter="url(#f18aci133n3qbm)" height="61.8359" id="Main" style="stroke:#A80036;stroke-width:1.5;" width="124" x="445" y="7"/><ellipse cx="489.75" cy="23" fill="#ADD1B2" rx="11" ry="11" style="stroke:#A80036;stroke-width:1.0;"/><path d="M492.5156,18.875 Q492.6719,18.6563 492.8594,18.5469 Q493.0469,18.4375 493.2656,18.4375 Q493.6406,18.4375 493.875,18.7031 Q494.1094,18.9531 494.1094,19.5625 L494.1094,21.0156 Q494.1094,21.625 493.875,21.8906 Q493.6406,22.1563 493.2656,22.1563 Q492.9219,22.1563 492.7188,21.9531 Q492.5156,21.7656 492.4063,21.25 Q492.3594,20.8906 492.1719,20.7031 Q491.8438,20.3281 491.2344,20.1094 Q490.625,19.8906 490,19.8906 Q489.2344,19.8906 488.5938,20.2188 Q487.9688,20.5469 487.4688,21.2969 Q486.9844,22.0469 486.9844,23.0781 L486.9844,24.1719 Q486.9844,25.4063 487.875,26.2344 Q488.7656,27.0469 490.3594,27.0469 Q491.2969,27.0469 491.9531,26.7969 Q492.3438,26.6406 492.7656,26.2031 Q493.0313,25.9375 493.1719,25.8594 Q493.3281,25.7813 493.5313,25.7813 Q493.8594,25.7813 494.1094,26.0469 Q494.375,26.2969 494.375,26.6406 Q494.375,26.9844 494.0313,27.3906 Q493.5313,27.9688 492.7344,28.2969 Q491.6563,28.75 490.3594,28.75 Q488.8438,28.75 487.6406,28.125 Q486.6563,27.625 485.9688,26.5625 Q485.2813,25.4844 485.2813,24.2031 L485.2813,23.0469 Q485.2813,21.7188 485.8906,20.5781 Q486.5156,19.4219 487.6094,18.8125 Q488.7031,18.1875 489.9375,18.1875 Q490.6719,18.1875 491.3125,18.3594 Q491.9688,18.5156 492.5156,18.875 Z " fill="#000000"/><text fill="#000000" font-family="sans-serif" font-size="12" lengthAdjust="spacing" textLength="26" x="510.25" y="27.9102">Main</text><line style="stroke:#A80036;stroke-width:1.5;" x1="446" x2="568" y1="39" y2="39"/><line style="stroke:#A80036;stroke-width:1.5;" x1="446" x2="568" y1="47" y2="47"/><text fill="#000000" font-family="sans-serif" font-size="11" lengthAdjust="spacing" textLength="112" x="451" y="62.4189">void main(String[] args)</text><!--MD5=[0278646e5a3f51edb25d463fe8c5bfab]
class MainController--><rect codeLine="30" fill="#FEFECE" filter="url(#f18aci133n3qbm)" height="214.0313" id="MainController" style="stroke:#A80036;stroke-width:1.5;" width="214" x="400" y="129"/><ellipse cx="462.75" cy="145" fill="#ADD1B2" rx="11" ry="11" style="stroke:#A80036;stroke-width:1.0;"/><path d="M465.5156,140.875 Q465.6719,140.6563 465.8594,140.5469 Q466.0469,140.4375 466.2656,140.4375 Q466.6406,140.4375 466.875,140.7031 Q467.1094,140.9531 467.1094,141.5625 L467.1094,143.0156 Q467.1094,143.625 466.875,143.8906 Q466.6406,144.1563 466.2656,144.1563 Q465.9219,144.1563 465.7188,143.9531 Q465.5156,143.7656 465.4063,143.25 Q465.3594,142.8906 465.1719,142.7031 Q464.8438,142.3281 464.2344,142.1094 Q463.625,141.8906 463,141.8906 Q462.2344,141.8906 461.5938,142.2188 Q460.9688,142.5469 460.4688,143.2969 Q459.9844,144.0469 459.9844,145.0781 L459.9844,146.1719 Q459.9844,147.4063 460.875,148.2344 Q461.7656,149.0469 463.3594,149.0469 Q464.2969,149.0469 464.9531,148.7969 Q465.3438,148.6406 465.7656,148.2031 Q466.0313,147.9375 466.1719,147.8594 Q466.3281,147.7813 466.5313,147.7813 Q466.8594,147.7813 467.1094,148.0469 Q467.375,148.2969 467.375,148.6406 Q467.375,148.9844 467.0313,149.3906 Q466.5313,149.9688 465.7344,150.2969 Q464.6563,150.75 463.3594,150.75 Q461.8438,150.75 460.6406,150.125 Q459.6563,149.625 458.9688,148.5625 Q458.2813,147.4844 458.2813,146.2031 L458.2813,145.0469 Q458.2813,143.7188 458.8906,142.5781 Q459.5156,141.4219 460.6094,140.8125 Q461.7031,140.1875 462.9375,140.1875 Q463.6719,140.1875 464.3125,140.3594 Q464.9688,140.5156 465.5156,140.875 Z " fill="#000000"/><text fill="#000000" font-family="sans-serif" font-size="12" lengthAdjust="spacing" textLength="80" x="483.25" y="149.9102">MainController</text><line style="stroke:#A80036;stroke-width:1.5;" x1="401" x2="613" y1="161" y2="161"/><text fill="#000000" font-family="sans-serif" font-size="11" lengthAdjust="spacing" textLength="97" x="406" y="176.4189">CommandUi console</text><text fill="#000000" font-family="sans-serif" font-size="11" lengthAdjust="spacing" textLength="115" x="406" y="190.2549">MemberGroup members</text><line style="stroke:#A80036;stroke-width:1.5;" x1="401" x2="613" y1="196.6719" y2="196.6719"/><text fill="#000000" font-family="sans-serif" font-size="11" lengthAdjust="spacing" textLength="81" x="406" y="212.0908">void startGame()</text><text fill="#000000" font-family="sans-serif" font-size="11" lengthAdjust="spacing" textLength="166" x="406" y="225.9268">void addMember(MemberGroup m)</text><text fill="#000000" font-family="sans-serif" font-size="11" lengthAdjust="spacing" textLength="184" x="406" y="239.7627">void removeMember(MemberGroup m)</text><text fill="#000000" font-family="sans-serif" font-size="11" lengthAdjust="spacing" textLength="198" x="406" y="253.5986">void showMemberBoat(MemberGroup m)</text><text fill="#000000" font-family="sans-serif" font-size="11" lengthAdjust="spacing" textLength="194" x="406" y="267.4346">void showMemberInfo(MemberGroup m)</text><text fill="#000000" font-family="sans-serif" font-size="11" lengthAdjust="spacing" textLength="127" x="406" y="281.2705">addBoat(MemberGroup m)</text><text fill="#000000" font-family="sans-serif" font-size="11" lengthAdjust="spacing" textLength="168" x="406" y="295.1064">void removeBoat(MemberGroup m)</text><text fill="#000000" font-family="sans-serif" font-size="11" lengthAdjust="spacing" textLength="202" x="406" y="308.9424">void changeMemberInfo(MemberGroup m)</text><text fill="#000000" font-family="sans-serif" font-size="11" lengthAdjust="spacing" textLength="186" x="406" y="322.7783">void changeBoatInfo(MemberGroup m)</text><text fill="#000000" font-family="sans-serif" font-size="11" lengthAdjust="spacing" textLength="195" x="406" y="336.6143">void getPrompt(Choices optionsChoices)</text><!--MD5=[c6e1d2503eb4ed5b1a47caf48d20dc49]
class CommandUi--><rect codeLine="83" fill="#FEFECE" filter="url(#f18aci133n3qbm)" height="48" id="CommandUi" style="stroke:#A80036;stroke-width:1.5;" width="103" x="295.5" y="444.5"/><ellipse cx="310.5" cy="460.5" fill="#B4A7E5" rx="11" ry="11" style="stroke:#A80036;stroke-width:1.0;"/><path d="M311.4531,457.1406 L311.4531,463.7969 L313.1719,463.7969 Q313.7813,463.7969 314.0469,464.0313 Q314.3125,464.2656 314.3125,464.6563 Q314.3125,465.0313 314.0469,465.2656 Q313.7813,465.5 313.1719,465.5 L308.0313,465.5 Q307.4219,465.5 307.1563,465.2656 Q306.8906,465.0313 306.8906,464.6406 Q306.8906,464.2656 307.1563,464.0313 Q307.4219,463.7969 308.0313,463.7969 L309.75,463.7969 L309.75,457.1406 L308.0313,457.1406 Q307.4219,457.1406 307.1563,456.9063 Q306.8906,456.6719 306.8906,456.2813 Q306.8906,455.9063 307.1563,455.6719 Q307.4219,455.4375 308.0313,455.4375 L313.1719,455.4375 Q313.7813,455.4375 314.0469,455.6719 Q314.3125,455.9063 314.3125,456.2813 Q314.3125,456.6719 314.0469,456.9063 Q313.7813,457.1406 313.1719,457.1406 L311.4531,457.1406 Z " fill="#000000"/><text fill="#000000" font-family="sans-serif" font-size="12" font-style="italic" lengthAdjust="spacing" textLength="71" x="324.5" y="465.4102">CommandUi</text><line style="stroke:#A80036;stroke-width:1.5;" x1="296.5" x2="397.5" y1="476.5" y2="476.5"/><line style="stroke:#A80036;stroke-width:1.5;" x1="296.5" x2="397.5" y1="484.5" y2="484.5"/><!--MD5=[d7378ac8501ce6417ec16634b4f30c76]
class Boat--><rect codeLine="9" fill="#FEFECE" filter="url(#f18aci133n3qbm)" height="186.3594" id="Boat" style="stroke:#A80036;stroke-width:1.5;" width="142" x="692" y="937"/><ellipse cx="746.25" cy="953" fill="#ADD1B2" rx="11" ry="11" style="stroke:#A80036;stroke-width:1.0;"/><path d="M749.0156,948.875 Q749.1719,948.6563 749.3594,948.5469 Q749.5469,948.4375 749.7656,948.4375 Q750.1406,948.4375 750.375,948.7031 Q750.6094,948.9531 750.6094,949.5625 L750.6094,951.0156 Q750.6094,951.625 750.375,951.8906 Q750.1406,952.1563 749.7656,952.1563 Q749.4219,952.1563 749.2188,951.9531 Q749.0156,951.7656 748.9063,951.25 Q748.8594,950.8906 748.6719,950.7031 Q748.3438,950.3281 747.7344,950.1094 Q747.125,949.8906 746.5,949.8906 Q745.7344,949.8906 745.0938,950.2188 Q744.4688,950.5469 743.9688,951.2969 Q743.4844,952.0469 743.4844,953.0781 L743.4844,954.1719 Q743.4844,955.4063 744.375,956.2344 Q745.2656,957.0469 746.8594,957.0469 Q747.7969,957.0469 748.4531,956.7969 Q748.8438,956.6406 749.2656,956.2031 Q749.5313,955.9375 749.6719,955.8594 Q749.8281,955.7813 750.0313,955.7813 Q750.3594,955.7813 750.6094,956.0469 Q750.875,956.2969 750.875,956.6406 Q750.875,956.9844 750.5313,957.3906 Q750.0313,957.9688 749.2344,958.2969 Q748.1563,958.75 746.8594,958.75 Q745.3438,958.75 744.1406,958.125 Q743.1563,957.625 742.4688,956.5625 Q741.7813,955.4844 741.7813,954.2031 L741.7813,953.0469 Q741.7813,951.7188 742.3906,950.5781 Q743.0156,949.4219 744.1094,948.8125 Q745.2031,948.1875 746.4375,948.1875 Q747.1719,948.1875 747.8125,948.3594 Q748.4688,948.5156 749.0156,948.875 Z " fill="#000000"/><text fill="#000000" font-family="sans-serif" font-size="12" lengthAdjust="spacing" textLength="25" x="766.75" y="957.9102">Boat</text><line style="stroke:#A80036;stroke-width:1.5;" x1="693" x2="833" y1="969" y2="969"/><text fill="#000000" font-family="sans-serif" font-size="11" lengthAdjust="spacing" textLength="48" x="698" y="984.4189">Type type</text><text fill="#000000" font-family="sans-serif" font-size="11" lengthAdjust="spacing" textLength="79" x="698" y="998.2549">Date registration</text><text fill="#000000" font-family="sans-serif" font-size="11" lengthAdjust="spacing" textLength="57" x="698" y="1012.0908">String name</text><line style="stroke:#A80036;stroke-width:1.5;" x1="693" x2="833" y1="1018.5078" y2="1018.5078"/><text fill="#000000" font-family="sans-serif" font-size="11" lengthAdjust="spacing" textLength="81" x="698" y="1033.9268">String getName()</text><text fill="#000000" font-family="sans-serif" font-size="11" lengthAdjust="spacing" textLength="0" x="701" y="1047.7627"/><text fill="#000000" font-family="sans-serif" font-size="11" lengthAdjust="spacing" textLength="130" x="698" y="1061.5986">void setName(String name)</text><text fill="#000000" font-family="sans-serif" font-size="11" lengthAdjust="spacing" textLength="0" x="701" y="1075.4346"/><text fill="#000000" font-family="sans-serif" font-size="11" lengthAdjust="spacing" textLength="74" x="698" y="1089.2705">Type getType()</text><text fill="#000000" font-family="sans-serif" font-size="11" lengthAdjust="spacing" textLength="0" x="701" y="1103.1064"/><text fill="#000000" font-family="sans-serif" font-size="11" lengthAdjust="spacing" textLength="118" x="698" y="1116.9424">void setType(Type type)</text><!--MD5=[4296a1ab0576a383a1a509d52c22ebf0]
class Type--><rect codeLine="25" fill="#FEFECE" filter="url(#f18aci133n3qbm)" height="61.8359" id="Type" style="stroke:#A80036;stroke-width:1.5;" width="146" x="690" y="1183"/><ellipse cx="745.75" cy="1199" fill="#EB937F" rx="11" ry="11" style="stroke:#A80036;stroke-width:1.0;"/><path d="M744.6094,1199.7969 L744.6094,1202.2969 L748.9375,1202.2969 L748.9375,1201.375 Q748.9375,1200.7656 749.1719,1200.5 Q749.4219,1200.2344 749.7969,1200.2344 Q750.1719,1200.2344 750.4063,1200.5 Q750.6406,1200.7656 750.6406,1201.375 L750.6406,1204 L742.6406,1204 Q742.0156,1204 741.75,1203.7656 Q741.5,1203.5313 741.5,1203.1406 Q741.5,1202.7656 741.7656,1202.5313 Q742.0313,1202.2969 742.6406,1202.2969 L742.9063,1202.2969 L742.9063,1195.6406 L742.6406,1195.6406 Q742.0156,1195.6406 741.75,1195.4063 Q741.5,1195.1719 741.5,1194.7813 Q741.5,1194.4063 741.75,1194.1719 Q742.0156,1193.9375 742.6406,1193.9375 L750.2656,1193.9375 L750.2656,1196.5313 Q750.2656,1197.1406 750.0313,1197.4063 Q749.8125,1197.6563 749.4219,1197.6563 Q749.0469,1197.6563 748.8125,1197.4063 Q748.5781,1197.1406 748.5781,1196.5313 L748.5781,1195.6406 L744.6094,1195.6406 L744.6094,1198.0938 L746.0938,1198.0938 Q746.0938,1197.4375 746.2188,1197.25 Q746.4844,1196.8438 746.9531,1196.8438 Q747.3281,1196.8438 747.5625,1197.1094 Q747.7969,1197.3594 747.7969,1197.9688 L747.7969,1199.9375 Q747.7969,1200.4844 747.6719,1200.6719 Q747.4063,1201.0625 746.9531,1201.0625 Q746.4844,1201.0625 746.2188,1200.6563 Q746.0938,1200.4688 746.0938,1199.7969 L744.6094,1199.7969 Z " fill="#000000"/><text fill="#000000" font-family="sans-serif" font-size="12" lengthAdjust="spacing" textLength="26" x="766.25" y="1203.9102">Type</text><line style="stroke:#A80036;stroke-width:1.5;" x1="691" x2="835" y1="1215" y2="1215"/><text fill="#000000" font-family="sans-serif" font-size="11" lengthAdjust="spacing" textLength="134" x="696" y="1230.4189">Sailboat, Motorsailer, Canoe</text><line style="stroke:#A80036;stroke-width:1.5;" x1="691" x2="835" y1="1236.8359" y2="1236.8359"/><!--MD5=[e1e8683a2efa629a354dd1e31acbaa31]
class HardCodeData--><rect codeLine="47" fill="#FEFECE" filter="url(#f18aci133n3qbm)" height="103.3438" id="HardCodeData" style="stroke:#A80036;stroke-width:1.5;" width="217" x="649.5" y="184.5"/><ellipse cx="712.25" cy="200.5" fill="#ADD1B2" rx="11" ry="11" style="stroke:#A80036;stroke-width:1.0;"/><path d="M715.0156,196.375 Q715.1719,196.1563 715.3594,196.0469 Q715.5469,195.9375 715.7656,195.9375 Q716.1406,195.9375 716.375,196.2031 Q716.6094,196.4531 716.6094,197.0625 L716.6094,198.5156 Q716.6094,199.125 716.375,199.3906 Q716.1406,199.6563 715.7656,199.6563 Q715.4219,199.6563 715.2188,199.4531 Q715.0156,199.2656 714.9063,198.75 Q714.8594,198.3906 714.6719,198.2031 Q714.3438,197.8281 713.7344,197.6094 Q713.125,197.3906 712.5,197.3906 Q711.7344,197.3906 711.0938,197.7188 Q710.4688,198.0469 709.9688,198.7969 Q709.4844,199.5469 709.4844,200.5781 L709.4844,201.6719 Q709.4844,202.9063 710.375,203.7344 Q711.2656,204.5469 712.8594,204.5469 Q713.7969,204.5469 714.4531,204.2969 Q714.8438,204.1406 715.2656,203.7031 Q715.5313,203.4375 715.6719,203.3594 Q715.8281,203.2813 716.0313,203.2813 Q716.3594,203.2813 716.6094,203.5469 Q716.875,203.7969 716.875,204.1406 Q716.875,204.4844 716.5313,204.8906 Q716.0313,205.4688 715.2344,205.7969 Q714.1563,206.25 712.8594,206.25 Q711.3438,206.25 710.1406,205.625 Q709.1563,205.125 708.4688,204.0625 Q707.7813,202.9844 707.7813,201.7031 L707.7813,200.5469 Q707.7813,199.2188 708.3906,198.0781 Q709.0156,196.9219 710.1094,196.3125 Q711.2031,195.6875 712.4375,195.6875 Q713.1719,195.6875 713.8125,195.8594 Q714.4688,196.0156 715.0156,196.375 Z " fill="#000000"/><text fill="#000000" font-family="sans-serif" font-size="12" lengthAdjust="spacing" textLength="83" x="732.75" y="205.4102">HardCodeData</text><line style="stroke:#A80036;stroke-width:1.5;" x1="650.5" x2="865.5" y1="216.5" y2="216.5"/><text fill="#000000" font-family="sans-serif" font-size="11" lengthAdjust="spacing" textLength="115" x="655.5" y="231.9189">MemberGroup members</text><line style="stroke:#A80036;stroke-width:1.5;" x1="650.5" x2="865.5" y1="238.3359" y2="238.3359"/><text fill="#000000" font-family="sans-serif" font-size="11" lengthAdjust="spacing" textLength="138" x="655.5" y="253.7549">MemberGroup getMembers()</text><text fill="#000000" font-family="sans-serif" font-size="11" lengthAdjust="spacing" textLength="0" x="658.5" y="267.5908"/><text fill="#000000" font-family="sans-serif" font-size="11" lengthAdjust="spacing" textLength="205" x="655.5" y="281.4268">void setMembers(MemberGroup members)</text><!--MD5=[5c2fbde25d3424b00e99c331ee7ed48b]
class MemberGroup--><rect codeLine="119" fill="#FEFECE" filter="url(#f18aci133n3qbm)" height="131.0156" id="MemberGroup" style="stroke:#A80036;stroke-width:1.5;" width="244" x="636" y="403"/><ellipse cx="714.25" cy="419" fill="#ADD1B2" rx="11" ry="11" style="stroke:#A80036;stroke-width:1.0;"/><path d="M717.0156,414.875 Q717.1719,414.6563 717.3594,414.5469 Q717.5469,414.4375 717.7656,414.4375 Q718.1406,414.4375 718.375,414.7031 Q718.6094,414.9531 718.6094,415.5625 L718.6094,417.0156 Q718.6094,417.625 718.375,417.8906 Q718.1406,418.1563 717.7656,418.1563 Q717.4219,418.1563 717.2188,417.9531 Q717.0156,417.7656 716.9063,417.25 Q716.8594,416.8906 716.6719,416.7031 Q716.3438,416.3281 715.7344,416.1094 Q715.125,415.8906 714.5,415.8906 Q713.7344,415.8906 713.0938,416.2188 Q712.4688,416.5469 711.9688,417.2969 Q711.4844,418.0469 711.4844,419.0781 L711.4844,420.1719 Q711.4844,421.4063 712.375,422.2344 Q713.2656,423.0469 714.8594,423.0469 Q715.7969,423.0469 716.4531,422.7969 Q716.8438,422.6406 717.2656,422.2031 Q717.5313,421.9375 717.6719,421.8594 Q717.8281,421.7813 718.0313,421.7813 Q718.3594,421.7813 718.6094,422.0469 Q718.875,422.2969 718.875,422.6406 Q718.875,422.9844 718.5313,423.3906 Q718.0313,423.9688 717.2344,424.2969 Q716.1563,424.75 714.8594,424.75 Q713.3438,424.75 712.1406,424.125 Q711.1563,423.625 710.4688,422.5625 Q709.7813,421.4844 709.7813,420.2031 L709.7813,419.0469 Q709.7813,417.7188 710.3906,416.5781 Q711.0156,415.4219 712.1094,414.8125 Q713.2031,414.1875 714.4375,414.1875 Q715.1719,414.1875 715.8125,414.3594 Q716.4688,414.5156 717.0156,414.875 Z " fill="#000000"/><text fill="#000000" font-family="sans-serif" font-size="12" lengthAdjust="spacing" textLength="79" x="734.75" y="423.9102">MemberGroup</text><line style="stroke:#A80036;stroke-width:1.5;" x1="637" x2="879" y1="435" y2="435"/><text fill="#000000" font-family="sans-serif" font-size="11" lengthAdjust="spacing" textLength="142" x="642" y="450.4189">ArrayList&lt;Member&gt; members</text><line style="stroke:#A80036;stroke-width:1.5;" x1="637" x2="879" y1="456.8359" y2="456.8359"/><text fill="#000000" font-family="sans-serif" font-size="11" lengthAdjust="spacing" textLength="165" x="642" y="472.2549">ArrayList&lt;Member&gt; getMembers()</text><text fill="#000000" font-family="sans-serif" font-size="11" lengthAdjust="spacing" textLength="0" x="645" y="486.0908"/><text fill="#000000" font-family="sans-serif" font-size="11" lengthAdjust="spacing" textLength="232" x="642" y="499.9268">void setMembers(ArrayList&lt;Member&gt; members)</text><text fill="#000000" font-family="sans-serif" font-size="11" lengthAdjust="spacing" textLength="0" x="645" y="513.7627"/><text fill="#000000" font-family="sans-serif" font-size="11" lengthAdjust="spacing" textLength="154" x="642" y="527.5986">boolean addMember(Member m)</text><!--MD5=[f58fd777f29c17413488bea9e7cfcca3]
class Member--><rect codeLine="60" fill="#FEFECE" filter="url(#f18aci133n3qbm)" height="283.2109" id="Member" style="stroke:#A80036;stroke-width:1.5;" width="195" x="662.5" y="594"/><ellipse cx="733.25" cy="610" fill="#ADD1B2" rx="11" ry="11" style="stroke:#A80036;stroke-width:1.0;"/><path d="M736.0156,605.875 Q736.1719,605.6563 736.3594,605.5469 Q736.5469,605.4375 736.7656,605.4375 Q737.1406,605.4375 737.375,605.7031 Q737.6094,605.9531 737.6094,606.5625 L737.6094,608.0156 Q737.6094,608.625 737.375,608.8906 Q737.1406,609.1563 736.7656,609.1563 Q736.4219,609.1563 736.2188,608.9531 Q736.0156,608.7656 735.9063,608.25 Q735.8594,607.8906 735.6719,607.7031 Q735.3438,607.3281 734.7344,607.1094 Q734.125,606.8906 733.5,606.8906 Q732.7344,606.8906 732.0938,607.2188 Q731.4688,607.5469 730.9688,608.2969 Q730.4844,609.0469 730.4844,610.0781 L730.4844,611.1719 Q730.4844,612.4063 731.375,613.2344 Q732.2656,614.0469 733.8594,614.0469 Q734.7969,614.0469 735.4531,613.7969 Q735.8438,613.6406 736.2656,613.2031 Q736.5313,612.9375 736.6719,612.8594 Q736.8281,612.7813 737.0313,612.7813 Q737.3594,612.7813 737.6094,613.0469 Q737.875,613.2969 737.875,613.6406 Q737.875,613.9844 737.5313,614.3906 Q737.0313,614.9688 736.2344,615.2969 Q735.1563,615.75 733.8594,615.75 Q732.3438,615.75 731.1406,615.125 Q730.1563,614.625 729.4688,613.5625 Q728.7813,612.4844 728.7813,611.2031 L728.7813,610.0469 Q728.7813,608.7188 729.3906,607.5781 Q730.0156,606.4219 731.1094,605.8125 Q732.2031,605.1875 733.4375,605.1875 Q734.1719,605.1875 734.8125,605.3594 Q735.4688,605.5156 736.0156,605.875 Z " fill="#000000"/><text fill="#000000" font-family="sans-serif" font-size="12" lengthAdjust="spacing" textLength="45" x="753.75" y="614.9102">Member</text><line style="stroke:#A80036;stroke-width:1.5;" x1="663.5" x2="856.5" y1="626" y2="626"/><text fill="#000000" font-family="sans-serif" font-size="11" lengthAdjust="spacing" textLength="39" x="668.5" y="641.4189">String id</text><text fill="#000000" font-family="sans-serif" font-size="11" lengthAdjust="spacing" textLength="57" x="668.5" y="655.2549">String name</text><text fill="#000000" font-family="sans-serif" font-size="11" lengthAdjust="spacing" textLength="110" x="668.5" y="669.0908">String personalNumber</text><text fill="#000000" font-family="sans-serif" font-size="11" lengthAdjust="spacing" textLength="109" x="668.5" y="682.9268">ArrayList&lt;Boat&gt; boats</text><line style="stroke:#A80036;stroke-width:1.5;" x1="663.5" x2="856.5" y1="689.3438" y2="689.3438"/><text fill="#000000" font-family="sans-serif" font-size="11" lengthAdjust="spacing" textLength="117" x="668.5" y="704.7627">void addBoat(Boat boat)</text><text fill="#000000" font-family="sans-serif" font-size="11" lengthAdjust="spacing" textLength="0" x="671.5" y="718.5986"/><text fill="#000000" font-family="sans-serif" font-size="11" lengthAdjust="spacing" textLength="147" x="668.5" y="732.4346">boolean removeBoat(int index)</text><text fill="#000000" font-family="sans-serif" font-size="11" lengthAdjust="spacing" textLength="0" x="671.5" y="746.2705"/><text fill="#000000" font-family="sans-serif" font-size="11" lengthAdjust="spacing" textLength="183" x="668.5" y="760.1064">void setBoats(ArrayList&lt;Boat&gt; boats)</text><text fill="#000000" font-family="sans-serif" font-size="11" lengthAdjust="spacing" textLength="0" x="671.5" y="773.9424"/><text fill="#000000" font-family="sans-serif" font-size="11" lengthAdjust="spacing" textLength="62" x="668.5" y="787.7783">String getId()</text><text fill="#000000" font-family="sans-serif" font-size="11" lengthAdjust="spacing" textLength="0" x="671.5" y="801.6143"/><text fill="#000000" font-family="sans-serif" font-size="11" lengthAdjust="spacing" textLength="96" x="668.5" y="815.4502">int getBoatNumber()</text><text fill="#000000" font-family="sans-serif" font-size="11" lengthAdjust="spacing" textLength="0" x="671.5" y="829.2861"/><text fill="#000000" font-family="sans-serif" font-size="11" lengthAdjust="spacing" textLength="93" x="668.5" y="843.1221">void setId(String id)</text><text fill="#000000" font-family="sans-serif" font-size="11" lengthAdjust="spacing" textLength="0" x="671.5" y="856.958"/><text fill="#000000" font-family="sans-serif" font-size="11" lengthAdjust="spacing" textLength="81" x="668.5" y="870.7939">String getName()</text><!--MD5=[157c97cd5c66412bcf01fb205f3b5e1c]
class ConsoleUi--><rect codeLine="117" fill="#FEFECE" filter="url(#f18aci133n3qbm)" height="283.2109" id="ConsoleUi" style="stroke:#A80036;stroke-width:1.5;" width="252" x="211" y="594"/><ellipse cx="303.25" cy="610" fill="#ADD1B2" rx="11" ry="11" style="stroke:#A80036;stroke-width:1.0;"/><path d="M306.0156,605.875 Q306.1719,605.6563 306.3594,605.5469 Q306.5469,605.4375 306.7656,605.4375 Q307.1406,605.4375 307.375,605.7031 Q307.6094,605.9531 307.6094,606.5625 L307.6094,608.0156 Q307.6094,608.625 307.375,608.8906 Q307.1406,609.1563 306.7656,609.1563 Q306.4219,609.1563 306.2188,608.9531 Q306.0156,608.7656 305.9063,608.25 Q305.8594,607.8906 305.6719,607.7031 Q305.3438,607.3281 304.7344,607.1094 Q304.125,606.8906 303.5,606.8906 Q302.7344,606.8906 302.0938,607.2188 Q301.4688,607.5469 300.9688,608.2969 Q300.4844,609.0469 300.4844,610.0781 L300.4844,611.1719 Q300.4844,612.4063 301.375,613.2344 Q302.2656,614.0469 303.8594,614.0469 Q304.7969,614.0469 305.4531,613.7969 Q305.8438,613.6406 306.2656,613.2031 Q306.5313,612.9375 306.6719,612.8594 Q306.8281,612.7813 307.0313,612.7813 Q307.3594,612.7813 307.6094,613.0469 Q307.875,613.2969 307.875,613.6406 Q307.875,613.9844 307.5313,614.3906 Q307.0313,614.9688 306.2344,615.2969 Q305.1563,615.75 303.8594,615.75 Q302.3438,615.75 301.1406,615.125 Q300.1563,614.625 299.4688,613.5625 Q298.7813,612.4844 298.7813,611.2031 L298.7813,610.0469 Q298.7813,608.7188 299.3906,607.5781 Q300.0156,606.4219 301.1094,605.8125 Q302.2031,605.1875 303.4375,605.1875 Q304.1719,605.1875 304.8125,605.3594 Q305.4688,605.5156 306.0156,605.875 Z " fill="#000000"/><text fill="#000000" font-family="sans-serif" font-size="12" lengthAdjust="spacing" textLength="59" x="323.75" y="614.9102">ConsoleUi</text><line style="stroke:#A80036;stroke-width:1.5;" x1="212" x2="462" y1="626" y2="626"/><line style="stroke:#A80036;stroke-width:1.5;" x1="212" x2="462" y1="634" y2="634"/><text fill="#000000" font-family="sans-serif" font-size="11" lengthAdjust="spacing" textLength="138" x="217" y="649.4189">Choices getChoices(int num)</text><text fill="#000000" font-family="sans-serif" font-size="11" lengthAdjust="spacing" textLength="0" x="220" y="663.2549"/><text fill="#000000" font-family="sans-serif" font-size="11" lengthAdjust="spacing" textLength="130" x="217" y="677.0908">void showGeneralPrompt()</text><text fill="#000000" font-family="sans-serif" font-size="11" lengthAdjust="spacing" textLength="0" x="220" y="690.9268"/><text fill="#000000" font-family="sans-serif" font-size="11" lengthAdjust="spacing" textLength="101" x="217" y="704.7627">String getKeyboard()</text><text fill="#000000" font-family="sans-serif" font-size="11" lengthAdjust="spacing" textLength="0" x="220" y="718.5986"/><text fill="#000000" font-family="sans-serif" font-size="11" lengthAdjust="spacing" textLength="227" x="217" y="732.4346">Type getBoatTypePrompt() throws IOException</text><text fill="#000000" font-family="sans-serif" font-size="11" lengthAdjust="spacing" textLength="0" x="220" y="746.2705"/><text fill="#000000" font-family="sans-serif" font-size="11" lengthAdjust="spacing" textLength="112" x="217" y="760.1064">int getOptionsMember()</text><text fill="#000000" font-family="sans-serif" font-size="11" lengthAdjust="spacing" textLength="0" x="220" y="773.9424"/><text fill="#000000" font-family="sans-serif" font-size="11" lengthAdjust="spacing" textLength="96" x="217" y="787.7783">int getOptionsBoat()</text><text fill="#000000" font-family="sans-serif" font-size="11" lengthAdjust="spacing" textLength="0" x="220" y="801.6143"/><text fill="#000000" font-family="sans-serif" font-size="11" lengthAdjust="spacing" textLength="240" x="217" y="815.4502">void displayCompactInfo(MemberGroup members)</text><text fill="#000000" font-family="sans-serif" font-size="11" lengthAdjust="spacing" textLength="0" x="220" y="829.2861"/><text fill="#000000" font-family="sans-serif" font-size="11" lengthAdjust="spacing" textLength="189" x="217" y="843.1221">BoatOption modifyBoatOptions(int num)</text><text fill="#000000" font-family="sans-serif" font-size="11" lengthAdjust="spacing" textLength="0" x="220" y="856.958"/><text fill="#000000" font-family="sans-serif" font-size="11" lengthAdjust="spacing" textLength="221" x="217" y="870.7939">MemberOption modifyMemberOptions(int num)</text><!--MD5=[195fcc4c8e3cdd178587e736426d8f66]
class Choices--><rect codeLine="106" fill="#FEFECE" filter="url(#f18aci133n3qbm)" height="75.6719" id="Choices" style="stroke:#A80036;stroke-width:1.5;" width="650" x="7" y="992"/><ellipse cx="304.75" cy="1008" fill="#EB937F" rx="11" ry="11" style="stroke:#A80036;stroke-width:1.0;"/><path d="M303.6094,1008.7969 L303.6094,1011.2969 L307.9375,1011.2969 L307.9375,1010.375 Q307.9375,1009.7656 308.1719,1009.5 Q308.4219,1009.2344 308.7969,1009.2344 Q309.1719,1009.2344 309.4063,1009.5 Q309.6406,1009.7656 309.6406,1010.375 L309.6406,1013 L301.6406,1013 Q301.0156,1013 300.75,1012.7656 Q300.5,1012.5313 300.5,1012.1406 Q300.5,1011.7656 300.7656,1011.5313 Q301.0313,1011.2969 301.6406,1011.2969 L301.9063,1011.2969 L301.9063,1004.6406 L301.6406,1004.6406 Q301.0156,1004.6406 300.75,1004.4063 Q300.5,1004.1719 300.5,1003.7813 Q300.5,1003.4063 300.75,1003.1719 Q301.0156,1002.9375 301.6406,1002.9375 L309.2656,1002.9375 L309.2656,1005.5313 Q309.2656,1006.1406 309.0313,1006.4063 Q308.8125,1006.6563 308.4219,1006.6563 Q308.0469,1006.6563 307.8125,1006.4063 Q307.5781,1006.1406 307.5781,1005.5313 L307.5781,1004.6406 L303.6094,1004.6406 L303.6094,1007.0938 L305.0938,1007.0938 Q305.0938,1006.4375 305.2188,1006.25 Q305.4844,1005.8438 305.9531,1005.8438 Q306.3281,1005.8438 306.5625,1006.1094 Q306.7969,1006.3594 306.7969,1006.9688 L306.7969,1008.9375 Q306.7969,1009.4844 306.6719,1009.6719 Q306.4063,1010.0625 305.9531,1010.0625 Q305.4844,1010.0625 305.2188,1009.6563 Q305.0938,1009.4688 305.0938,1008.7969 L303.6094,1008.7969 Z " fill="#000000"/><text fill="#000000" font-family="sans-serif" font-size="12" lengthAdjust="spacing" textLength="46" x="325.25" y="1012.9102">Choices</text><line style="stroke:#A80036;stroke-width:1.5;" x1="8" x2="656" y1="1024" y2="1024"/><text fill="#000000" font-family="sans-serif" font-size="11" lengthAdjust="spacing" textLength="638" x="13" y="1039.4189">Exit, addBoat, addMember, removeBoat, removeMember, showMemberBoat, showAllMember, showMemberInfo, changeMemberInfo,</text><text fill="#000000" font-family="sans-serif" font-size="11" lengthAdjust="spacing" textLength="77" x="13" y="1053.2549">ChangeBoatInfo</text><line style="stroke:#A80036;stroke-width:1.5;" x1="8" x2="656" y1="1059.6719" y2="1059.6719"/><!--MD5=[cd54aa2b6c7cbf190f397a0f084ed133]
link Main to MainController--><path codeLine="6" d="M507,69.2 C507,84.34 507,103.73 507,123.86 " fill="none" id="Main-to-MainController" style="stroke:#A80036;stroke-width:1.0;stroke-dasharray:7.0,7.0;"/><polygon fill="#A80036" points="507,129,511,120,507,124,503,120,507,129" style="stroke:#A80036;stroke-width:1.0;"/><!--MD5=[21c1335de5dede356441d7dec2ea74e6]
link Main to CommandUi--><path codeLine="7" d="M444.81,69.2 C421.21,83.9 396.54,103.89 382,129 C323.25,230.45 334.55,377.99 342.6,439.23 " fill="none" id="Main-to-CommandUi" style="stroke:#A80036;stroke-width:1.0;stroke-dasharray:7.0,7.0;"/><polygon fill="#A80036" points="343.27,444.18,346.049,434.7313,342.6111,439.2236,338.1188,435.7857,343.27,444.18" style="stroke:#A80036;stroke-width:1.0;"/><!--MD5=[b52785887d4fc1cf7d57d4287dfb121a]
reverse link Boat to Type--><path codeLine="23" d="M763,1138.24 C763,1154.61 763,1170.25 763,1182.96 " fill="none" id="Boat-backto-Type" style="stroke:#A80036;stroke-width:1.0;"/><ellipse cx="763" cy="1131.07" fill="#FFFFFF" rx="8" ry="8" style="stroke:#A80036;stroke-width:1.0;"/><line style="stroke:#A80036;stroke-width:1.0;" x1="763" x2="763" y1="1139.07" y2="1123.07"/><line style="stroke:#A80036;stroke-width:1.0;" x1="755" x2="771" y1="1131.07" y2="1131.07"/><!--MD5=[46a6d46cea5ef1f8cb64f884dc4ce6d4]
link HardCodeData to MemberGroup--><path codeLine="46" d="M758,287.58 C758,319.92 758,362.3 758,397.8 " fill="none" id="HardCodeData-to-MemberGroup" style="stroke:#A80036;stroke-width:1.0;"/><polygon fill="#A80036" points="758,402.99,762,393.99,758,397.99,754,393.99,758,402.99" style="stroke:#A80036;stroke-width:1.0;"/><!--MD5=[4fb3bfa12a2c36e5f6203296cf3b28e2]
reverse link MemberGroup to Member--><path codeLine="57" d="M758.59,547.51 C758.7,562.22 758.82,578.02 758.94,593.97 " fill="none" id="MemberGroup-backto-Member" style="stroke:#A80036;stroke-width:1.0;"/><polygon fill="#A80036" points="758.49,534.33,754.5363,540.3606,758.5823,546.3296,762.536,540.2991,758.49,534.33" style="stroke:#A80036;stroke-width:1.0;"/><!--MD5=[1f93ea5e69709348fdab6359578e8334]
reverse link Member to Boat--><path codeLine="58" d="M761.58,890.44 C761.74,906.21 761.9,921.86 762.05,936.65 " fill="none" id="Member-backto-Boat" style="stroke:#A80036;stroke-width:1.0;"/><polygon fill="#A80036" points="761.44,877.18,757.5062,883.2236,761.5719,889.1793,765.5057,883.1357,761.44,877.18" style="stroke:#A80036;stroke-width:1.0;"/><!--MD5=[cc3e311fed600949f11886c2b58e82d8]
link ConsoleUi to Choices--><path codeLine="111" d="M334.6,877.18 C333.91,917 333.22,957.37 332.73,986.46 " fill="none" id="ConsoleUi-to-Choices" style="stroke:#A80036;stroke-width:1.0;stroke-dasharray:7.0,7.0;"/><polygon fill="#A80036" points="332.64,991.76,336.7937,982.8299,332.7257,986.7607,328.7949,982.6928,332.64,991.76" style="stroke:#A80036;stroke-width:1.0;"/><!--MD5=[7c6cb25b489279f59820a2c5ddeb25a1]
link Main to HardCodeData--><path codeLine="112" d="M550,69.12 C574.1,86.28 604.56,108.41 631,129 C652.14,145.46 674.73,164 694.92,180.92 " fill="none" id="Main-to-HardCodeData" style="stroke:#A80036;stroke-width:1.0;stroke-dasharray:7.0,7.0;"/><polygon fill="#A80036" points="698.92,184.28,694.5991,175.4296,695.0906,181.065,689.4552,181.5566,698.92,184.28" style="stroke:#A80036;stroke-width:1.0;"/><!--MD5=[e842e30cf3345648997483c84b6d4583]
link MainController to CommandUi--><path codeLine="114" d="M433.32,343.14 C408.61,378.74 383.1,415.5 366.28,439.73 " fill="none" id="MainController-to-CommandUi" style="stroke:#A80036;stroke-width:1.0;"/><polygon fill="#A80036" points="363.24,444.1,371.647,438.9695,366.0823,439.9865,365.0654,434.4218,363.24,444.1" style="stroke:#A80036;stroke-width:1.0;"/><!--MD5=[a90a66785e554ed7452777f39c4b9e13]
link MainController to MemberGroup--><path codeLine="115" d="M614.17,335.42 C637.6,356.94 661.9,379.25 683.71,399.28 " fill="none" id="MainController-to-MemberGroup" style="stroke:#A80036;stroke-width:1.0;"/><polygon fill="#A80036" points="687.47,402.73,683.548,393.6957,683.7878,399.3475,678.136,399.5873,687.47,402.73" style="stroke:#A80036;stroke-width:1.0;"/><!--MD5=[ebcf1ac0d65bec837fe1901d2b0b3b69]
reverse link CommandUi to ConsoleUi--><path d="M345.37,512.76 C344.52,535.34 343.42,564.37 342.3,593.95 " fill="none" id="CommandUi-backto-ConsoleUi" style="stroke:#A80036;stroke-width:1.0;stroke-dasharray:7.0,7.0;"/><polygon fill="none" points="338.38,512.28,346.13,492.55,352.37,512.8,338.38,512.28" style="stroke:#A80036;stroke-width:1.0;"/><!--MD5=[09e6a91c9bd0684e06eb32c9821e19d2]
@startuml

class Main {
  void main(String[] args)
}

Main ..> MainController
Main ..> CommandUi

 class Boat {
   Type type
   Date registration
   String name

   String getName()

   void setName(String name)

   Type getType()

   void setType(Type type)
}

  Boat +- - Type

  enum Type {
  Sailboat, Motorsailer, Canoe
}


class MainController {
    CommandUi console
    MemberGroup members

    void startGame()
    void addMember(MemberGroup m)
    {method} void removeMember(MemberGroup m)
    void showMemberBoat(MemberGroup m)
    void showMemberInfo(MemberGroup m)
    addBoat(MemberGroup m)
    void removeBoat(MemberGroup m)
    void changeMemberInfo(MemberGroup m)
    void changeBoatInfo(MemberGroup m)
    void getPrompt(Choices optionsChoices)
}

HardCodeData - -> MemberGroup
 class HardCodeData {

  MemberGroup members

   MemberGroup getMembers()

   void setMembers(MemberGroup members)

}

MemberGroup *- - Member
Member *- - Boat

 class Member {
   String id
   String name
   String personalNumber
   ArrayList<Boat> boats

   void addBoat(Boat boat)

   boolean removeBoat(int index)

   void setBoats(ArrayList<Boat> boats)

   String getId()

   int getBoatNumber()

   void setId(String id)

   String getName()


}

interface CommandUi

class ConsoleUi {
   Choices getChoices(int num)

   void showGeneralPrompt()

   String getKeyboard()

   Type getBoatTypePrompt() throws IOException

   int getOptionsMember()

   int getOptionsBoat()

   void displayCompactInfo(MemberGroup members)

   BoatOption modifyBoatOptions(int num)

   MemberOption modifyMemberOptions(int num)

}    

enum Choices {
  Exit, addBoat, addMember, removeBoat, removeMember, showMemberBoat, showAllMember, showMemberInfo, changeMemberInfo,
  ChangeBoatInfo
}

ConsoleUi ..> Choices
Main ..> HardCodeData

MainController - -> CommandUi
MainController - -> MemberGroup

class ConsoleUi implements CommandUi

class MemberGroup {
  ArrayList<Member> members

  ArrayList<Member> getMembers()

  void setMembers(ArrayList<Member> members)

  boolean addMember(Member m)

}


@enduml

PlantUML version 1.2021.00(Sun Jan 10 11:25:05 CET 2021)
(GPL source distribution)
Java Runtime: OpenJDK Runtime Environment
JVM: OpenJDK 64-Bit Server VM
Default Encoding: Cp1252
Language: en
Country: US
--></g></svg>